{
	"asset":{
		"generator":"Khronos glTF Blender I/O v5.1.19",
		"version":"2.0"
	},
	"extensionsUsed":[
		"KHR_materials_specular"
	],
	"scene":0,
	"scenes":[
		{
			"name":"__exp__",
			"nodes":[
				0
			]
		}
	],
	"nodes":[
		{
			"mesh":0,
			"name":"ConsoleTv_var2",
			"rotation":[
				0,
				0.7071067094802856,
				0,
				0.7071068286895752
			]
		}
	],
	"materials":[
		{
			"doubleSided":true,
			"extensions":{
				"KHR_materials_specular":{
					"specularColorTexture":{
						"index":0
					}
				}
			},
			"name":"Stainless steel",
			"normalTexture":{
				"index":1
			},
			"pbrMetallicRoughness":{
				"baseColorTexture":{
					"index":2
				},
				"metallicRoughnessTexture":{
					"index":3
				}
			}
		},
		{
			"doubleSided":true,
			"emissiveFactor":[
				1,
				1,
				1
			],
			"emissiveTexture":{
				"index":4
			},
			"name":"TitleScreen.004",
			"pbrMetallicRoughness":{
				"baseColorFactor":[
					0,
					0,
					0,
					1
				]
			}
		}
	],
	"meshes":[
		{
			"name":"Cube.039",
			"primitives":[
				{
					"attributes":{
						"POSITION":0,
						"NORMAL":1,
						"TEXCOORD_0":2
					},
					"indices":3,
					"material":0
				},
				{
					"attributes":{
						"POSITION":4,
						"NORMAL":5,
						"TEXCOORD_0":6
					},
					"indices":7,
					"material":1
				}
			]
		}
	],
	"textures":[
		{
			"sampler":0,
			"source":0
		},
		{
			"sampler":0,
			"source":1
		},
		{
			"sampler":0,
			"source":2
		},
		{
			"sampler":0,
			"source":3
		},
		{
			"sampler":0,
			"source":4
		}
	],
	"images":[
		{
			"mimeType":"image/jpeg",
			"name":"Poliigon_MetalSteelBrushed_7174_AmbientOcclusion",
			"uri":"Poliigon_MetalSteelBrushed_7174_AmbientOcclusion.jpg"
		},
		{
			"mimeType":"image/png",
			"name":"Poliigon_MetalSteelBrushed_7174_Normal",
			"uri":"Poliigon_MetalSteelBrushed_7174_Normal.png"
		},
		{
			"mimeType":"image/jpeg",
			"name":"Poliigon_MetalSteelBrushed_7174_BaseColor",
			"uri":"Poliigon_MetalSteelBrushed_7174_BaseColor.jpg"
		},
		{
			"mimeType":"image/png",
			"name":"Poliigon_MetalSteelBrushed_7174_Metallic",
			"uri":"Poliigon_MetalSteelBrushed_7174_Metallic.png"
		},
		{
			"mimeType":"image/png",
			"name":"Titles",
			"uri":"Titles.png"
		}
	],
	"accessors":[
		{
			"bufferView":0,
			"componentType":5126,
			"count":2379,
			"max":[
				0.40279853343963623,
				6.100478649139404,
				2.2682971954345703
			],
			"min":[
				-0.48640596866607666,
				0.000811457633972168,
				-1
			],
			"type":"VEC3"
		},
		{
			"bufferView":1,
			"componentType":5126,
			"count":2379,
			"type":"VEC3"
		},
		{
			"bufferView":2,
			"componentType":5126,
			"count":2379,
			"type":"VEC2"
		},
		{
			"bufferView":3,
			"componentType":5123,
			"count":5694,
			"type":"SCALAR"
		},
		{
			"bufferView":4,
			"componentType":5126,
			"count":16,
			"max":[
				0.3001540005207062,
				6.08212423324585,
				2.2499427795410156
			],
			"min":[
				0.300153911113739,
				2.118833065032959,
				-0.9816457629203796
			],
			"type":"VEC3"
		},
		{
			"bufferView":5,
			"componentType":5126,
			"count":16,
			"type":"VEC3"
		},
		{
			"bufferView":6,
			"componentType":5126,
			"count":16,
			"type":"VEC2"
		},
		{
			"bufferView":7,
			"componentType":5123,
			"count":42,
			"type":"SCALAR"
		}
	],
	"bufferViews":[
		{
			"buffer":0,
			"byteLength":28548,
			"byteOffset":0,
			"target":34962
		},
		{
			"buffer":0,
			"byteLength":28548,
			"byteOffset":28548,
			"target":34962
		},
		{
			"buffer":0,
			"byteLength":19032,
			"byteOffset":57096,
			"target":34962
		},
		{
			"buffer":0,
			"byteLength":11388,
			"byteOffset":76128,
			"target":34963
		},
		{
			"buffer":0,
			"byteLength":192,
			"byteOffset":87516,
			"target":34962
		},
		{
			"buffer":0,
			"byteLength":192,
			"byteOffset":87708,
			"target":34962
		},
		{
			"buffer":0,
			"byteLength":128,
			"byteOffset":87900,
			"target":34962
		},
		{
			"buffer":0,
			"byteLength":84,
			"byteOffset":88028,
			"target":34963
		}
	],
	"samplers":[
		{
			"magFilter":9729,
			"minFilter":9987
		}
	],
	"buffers":[
		{
			"byteLength":88112,
			"uri":"ConsoleTv_var2.bin"
		}
	]
}
