{
	"asset":{
		"generator":"Khronos glTF Blender I/O v5.1.19",
		"version":"2.0"
	},
	"extensionsUsed":[
		"KHR_materials_specular"
	],
	"scene":0,
	"scenes":[
		{
			"name":"__exp__",
			"nodes":[
				0
			]
		}
	],
	"nodes":[
		{
			"mesh":0,
			"name":"Door",
			"scale":[
				2,
				2,
				2
			],
			"translation":[
				-15.74374008178711,
				2.864439010620117,
				0.10657397657632828
			]
		}
	],
	"materials":[
		{
			"doubleSided":true,
			"extensions":{
				"KHR_materials_specular":{
					"specularColorTexture":{
						"index":0
					}
				}
			},
			"name":"Stainless steel",
			"normalTexture":{
				"index":1
			},
			"pbrMetallicRoughness":{
				"baseColorTexture":{
					"index":2
				},
				"metallicRoughnessTexture":{
					"index":3
				}
			}
		},
		{
			"doubleSided":true,
			"emissiveFactor":[
				1,
				1,
				1
			],
			"emissiveTexture":{
				"index":4
			},
			"name":"Exit",
			"pbrMetallicRoughness":{
				"baseColorFactor":[
					0,
					0,
					0,
					1
				]
			}
		},
		{
			"doubleSided":true,
			"name":"Blackemission"
		}
	],
	"meshes":[
		{
			"name":"Cube.001",
			"primitives":[
				{
					"attributes":{
						"POSITION":0,
						"NORMAL":1,
						"TEXCOORD_0":2
					},
					"indices":3,
					"material":0
				},
				{
					"attributes":{
						"POSITION":4,
						"NORMAL":5,
						"TEXCOORD_0":6
					},
					"indices":7,
					"material":1
				},
				{
					"attributes":{
						"POSITION":8,
						"NORMAL":9,
						"TEXCOORD_0":10
					},
					"indices":11,
					"material":2
				}
			]
		}
	],
	"textures":[
		{
			"sampler":0,
			"source":0
		},
		{
			"sampler":0,
			"source":1
		},
		{
			"sampler":0,
			"source":2
		},
		{
			"sampler":0,
			"source":3
		},
		{
			"sampler":0,
			"source":4
		}
	],
	"images":[
		{
			"mimeType":"image/jpeg",
			"name":"Poliigon_MetalSteelBrushed_7174_AmbientOcclusion",
			"uri":"Poliigon_MetalSteelBrushed_7174_AmbientOcclusion.jpg"
		},
		{
			"mimeType":"image/png",
			"name":"Poliigon_MetalSteelBrushed_7174_Normal",
			"uri":"Poliigon_MetalSteelBrushed_7174_Normal.png"
		},
		{
			"mimeType":"image/jpeg",
			"name":"Poliigon_MetalSteelBrushed_7174_BaseColor",
			"uri":"Poliigon_MetalSteelBrushed_7174_BaseColor.jpg"
		},
		{
			"mimeType":"image/png",
			"name":"Poliigon_MetalSteelBrushed_7174_Metallic",
			"uri":"Poliigon_MetalSteelBrushed_7174_Metallic.png"
		},
		{
			"mimeType":"image/png",
			"name":"PropsDecal",
			"uri":"PropsDecal.png"
		}
	],
	"accessors":[
		{
			"bufferView":0,
			"componentType":5126,
			"count":457,
			"max":[
				0.12328207492828369,
				1.572697639465332,
				0.9384913444519043
			],
			"min":[
				-0.2660050392150879,
				-1.4322195053100586,
				-1.0615086555480957
			],
			"type":"VEC3"
		},
		{
			"bufferView":1,
			"componentType":5126,
			"count":457,
			"type":"VEC3"
		},
		{
			"bufferView":2,
			"componentType":5126,
			"count":457,
			"type":"VEC2"
		},
		{
			"bufferView":3,
			"componentType":5123,
			"count":870,
			"type":"SCALAR"
		},
		{
			"bufferView":4,
			"componentType":5126,
			"count":16,
			"max":[
				0.12328207492828369,
				1.5179145336151123,
				0.8562741279602051
			],
			"min":[
				-0.016054630279541016,
				-1.4322195053100586,
				-0.9989994764328003
			],
			"type":"VEC3"
		},
		{
			"bufferView":5,
			"componentType":5126,
			"count":16,
			"type":"VEC3"
		},
		{
			"bufferView":6,
			"componentType":5126,
			"count":16,
			"type":"VEC2"
		},
		{
			"bufferView":7,
			"componentType":5123,
			"count":36,
			"type":"SCALAR"
		},
		{
			"bufferView":8,
			"componentType":5126,
			"count":12,
			"max":[
				-0.043655455112457275,
				0.5196588039398193,
				0.8896315693855286
			],
			"min":[
				-0.043655455112457275,
				-1.4322195053100586,
				-0.10370742529630661
			],
			"type":"VEC3"
		},
		{
			"bufferView":9,
			"componentType":5126,
			"count":12,
			"type":"VEC3"
		},
		{
			"bufferView":10,
			"componentType":5126,
			"count":12,
			"type":"VEC2"
		},
		{
			"bufferView":11,
			"componentType":5123,
			"count":30,
			"type":"SCALAR"
		}
	],
	"bufferViews":[
		{
			"buffer":0,
			"byteLength":5484,
			"byteOffset":0,
			"target":34962
		},
		{
			"buffer":0,
			"byteLength":5484,
			"byteOffset":5484,
			"target":34962
		},
		{
			"buffer":0,
			"byteLength":3656,
			"byteOffset":10968,
			"target":34962
		},
		{
			"buffer":0,
			"byteLength":1740,
			"byteOffset":14624,
			"target":34963
		},
		{
			"buffer":0,
			"byteLength":192,
			"byteOffset":16364,
			"target":34962
		},
		{
			"buffer":0,
			"byteLength":192,
			"byteOffset":16556,
			"target":34962
		},
		{
			"buffer":0,
			"byteLength":128,
			"byteOffset":16748,
			"target":34962
		},
		{
			"buffer":0,
			"byteLength":72,
			"byteOffset":16876,
			"target":34963
		},
		{
			"buffer":0,
			"byteLength":144,
			"byteOffset":16948,
			"target":34962
		},
		{
			"buffer":0,
			"byteLength":144,
			"byteOffset":17092,
			"target":34962
		},
		{
			"buffer":0,
			"byteLength":96,
			"byteOffset":17236,
			"target":34962
		},
		{
			"buffer":0,
			"byteLength":60,
			"byteOffset":17332,
			"target":34963
		}
	],
	"samplers":[
		{
			"magFilter":9729,
			"minFilter":9987
		}
	],
	"buffers":[
		{
			"byteLength":17392,
			"uri":"Door.bin"
		}
	]
}
