{
	"asset":{
		"generator":"Khronos glTF Blender I/O v5.1.19",
		"version":"2.0"
	},
	"scene":0,
	"scenes":[
		{
			"name":"Hub_Instances",
			"nodes":[
				0,
				1,
				2,
				3,
				4,
				5,
				6,
				7,
				8,
				9,
				10,
				11,
				12
			]
		}
	],
	"nodes":[
		{
			"mesh":0,
			"name":"MainHall",
			"translation":[
				0,
				2,
				0
			]
		},
		{
			"mesh":1,
			"name":"Hub_Collider",
			"translation":[
				-11.55555534362793,
				2.305419921875,
				0
			]
		},
		{
			"name":"MedBlock.002",
			"translation":[
				7.294214248657227,
				2.2500905990600586,
				6.309649467468262
			]
		},
		{
			"name":"Door.002",
			"translation":[
				-15.74374008178711,
				2.864439010620117,
				0.10657397657632828
			]
		},
		{
			"name":"UpgradeTable.002",
			"rotation":[
				0.5,
				-0.5,
				0.5,
				0.5000000596046448
			],
			"translation":[
				4.45954704284668,
				2.31709885597229,
				-6.5286736488342285
			]
		},
		{
			"name":"ConsoleTv_var1.002",
			"rotation":[
				0,
				1,
				0,
				7.549790126404332e-08
			],
			"translation":[
				-16.110794067382812,
				4,
				5.756802082061768
			]
		},
		{
			"name":"ConsoleTv_var1.003",
			"rotation":[
				0,
				1,
				0,
				7.549790126404332e-08
			],
			"translation":[
				-16.110795974731445,
				4,
				-4.5035719871521
			]
		},
		{
			"name":"ConsoleTv_var2.007",
			"rotation":[
				0,
				0.7071067094802856,
				0,
				0.7071068286895752
			],
			"translation":[
				-13.883668899536133,
				4,
				-8.088501930236816
			]
		},
		{
			"name":"ConsoleTv_var2.008",
			"rotation":[
				0,
				0.7071067094802856,
				0,
				0.7071068286895752
			],
			"translation":[
				-10.106986045837402,
				4,
				-8.088501930236816
			]
		},
		{
			"name":"ConsoleTv_var2.009",
			"rotation":[
				0,
				0.7071067094802856,
				0,
				0.7071068286895752
			],
			"translation":[
				-6.059262275695801,
				4,
				-8.088501930236816
			]
		},
		{
			"name":"ConsoleTv_var2.010",
			"rotation":[
				0,
				-0.7071068286895752,
				0,
				0.7071068286895752
			],
			"translation":[
				-6.076174259185791,
				4,
				8.110795974731445
			]
		},
		{
			"name":"ConsoleTv_var2.011",
			"rotation":[
				0,
				-0.7071068286895752,
				0,
				0.7071068286895752
			],
			"translation":[
				-1.7987706661224365,
				4,
				8.110795974731445
			]
		},
		{
			"name":"ConsoleTv_var2.012",
			"rotation":[
				0,
				-0.7071068286895752,
				0,
				0.7071068286895752
			],
			"translation":[
				-10.871204376220703,
				4,
				8.110795974731445
			]
		}
	],
	"meshes":[
		{
			"name":"Cube",
			"primitives":[
				{
					"attributes":{
						"POSITION":0,
						"NORMAL":1,
						"TEXCOORD_0":2
					},
					"indices":3
				},
				{
					"attributes":{
						"POSITION":4,
						"NORMAL":5,
						"TEXCOORD_0":6
					},
					"indices":7
				}
			]
		},
		{
			"name":"Cube.037",
			"primitives":[
				{
					"attributes":{
						"POSITION":8,
						"NORMAL":9,
						"TEXCOORD_0":10
					},
					"indices":11
				}
			]
		}
	],
	"accessors":[
		{
			"bufferView":0,
			"componentType":5126,
			"count":645,
			"max":[
				8.51798152923584,
				4.480245113372803,
				8.51798152923584
			],
			"min":[
				-16.517982482910156,
				-2.3662683963775635,
				-8.51798152923584
			],
			"type":"VEC3"
		},
		{
			"bufferView":1,
			"componentType":5126,
			"count":645,
			"type":"VEC3"
		},
		{
			"bufferView":2,
			"componentType":5126,
			"count":645,
			"type":"VEC2"
		},
		{
			"bufferView":3,
			"componentType":5123,
			"count":1134,
			"type":"SCALAR"
		},
		{
			"bufferView":4,
			"componentType":5126,
			"count":1880,
			"max":[
				0.27757737040519714,
				2.0217835903167725,
				8.14383316040039
			],
			"min":[
				-16.081974029541016,
				-2,
				-8.14383316040039
			],
			"type":"VEC3"
		},
		{
			"bufferView":5,
			"componentType":5126,
			"count":1880,
			"type":"VEC3"
		},
		{
			"bufferView":6,
			"componentType":5126,
			"count":1880,
			"type":"VEC2"
		},
		{
			"bufferView":7,
			"componentType":5123,
			"count":3906,
			"type":"SCALAR"
		},
		{
			"bufferView":8,
			"componentType":5126,
			"count":276,
			"max":[
				19.75676155090332,
				4.174825191497803,
				8.159538269042969
			],
			"min":[
				-4.586719989776611,
				-2.612297296524048,
				-8.159538269042969
			],
			"type":"VEC3"
		},
		{
			"bufferView":9,
			"componentType":5126,
			"count":276,
			"type":"VEC3"
		},
		{
			"bufferView":10,
			"componentType":5126,
			"count":276,
			"type":"VEC2"
		},
		{
			"bufferView":11,
			"componentType":5123,
			"count":570,
			"type":"SCALAR"
		}
	],
	"bufferViews":[
		{
			"buffer":0,
			"byteLength":7740,
			"byteOffset":0,
			"target":34962
		},
		{
			"buffer":0,
			"byteLength":7740,
			"byteOffset":7740,
			"target":34962
		},
		{
			"buffer":0,
			"byteLength":5160,
			"byteOffset":15480,
			"target":34962
		},
		{
			"buffer":0,
			"byteLength":2268,
			"byteOffset":20640,
			"target":34963
		},
		{
			"buffer":0,
			"byteLength":22560,
			"byteOffset":22908,
			"target":34962
		},
		{
			"buffer":0,
			"byteLength":22560,
			"byteOffset":45468,
			"target":34962
		},
		{
			"buffer":0,
			"byteLength":15040,
			"byteOffset":68028,
			"target":34962
		},
		{
			"buffer":0,
			"byteLength":7812,
			"byteOffset":83068,
			"target":34963
		},
		{
			"buffer":0,
			"byteLength":3312,
			"byteOffset":90880,
			"target":34962
		},
		{
			"buffer":0,
			"byteLength":3312,
			"byteOffset":94192,
			"target":34962
		},
		{
			"buffer":0,
			"byteLength":2208,
			"byteOffset":97504,
			"target":34962
		},
		{
			"buffer":0,
			"byteLength":1140,
			"byteOffset":99712,
			"target":34963
		}
	],
	"buffers":[
		{
			"byteLength":100852,
			"uri":"Hub_Instances.bin"
		}
	]
}
