{
	"asset":{
		"generator":"Khronos glTF Blender I/O v5.1.19",
		"version":"2.0"
	},
	"extensionsUsed":[
		"KHR_materials_specular"
	],
	"scene":0,
	"scenes":[
		{
			"name":"__exp__",
			"nodes":[
				0
			]
		}
	],
	"nodes":[
		{
			"mesh":0,
			"name":"MainHall",
			"translation":[
				0,
				2,
				0
			]
		}
	],
	"materials":[
		{
			"doubleSided":true,
			"name":"Material",
			"pbrMetallicRoughness":{
				"baseColorFactor":[
					0.800000011920929,
					0.800000011920929,
					0.800000011920929,
					1
				],
				"metallicFactor":0,
				"roughnessFactor":0.5
			}
		},
		{
			"doubleSided":true,
			"extensions":{
				"KHR_materials_specular":{
					"specularColorTexture":{
						"index":0
					}
				}
			},
			"name":"Stainless steel",
			"normalTexture":{
				"index":1
			},
			"pbrMetallicRoughness":{
				"baseColorTexture":{
					"index":2
				},
				"metallicRoughnessTexture":{
					"index":3
				}
			}
		}
	],
	"meshes":[
		{
			"name":"Cube",
			"primitives":[
				{
					"attributes":{
						"POSITION":0,
						"NORMAL":1,
						"TEXCOORD_0":2
					},
					"indices":3,
					"material":0
				},
				{
					"attributes":{
						"POSITION":4,
						"NORMAL":5,
						"TEXCOORD_0":6
					},
					"indices":7,
					"material":1
				}
			]
		}
	],
	"textures":[
		{
			"sampler":0,
			"source":0
		},
		{
			"sampler":0,
			"source":1
		},
		{
			"sampler":0,
			"source":2
		},
		{
			"sampler":0,
			"source":3
		}
	],
	"images":[
		{
			"mimeType":"image/jpeg",
			"name":"Poliigon_MetalSteelBrushed_7174_AmbientOcclusion",
			"uri":"Poliigon_MetalSteelBrushed_7174_AmbientOcclusion.jpg"
		},
		{
			"mimeType":"image/png",
			"name":"Poliigon_MetalSteelBrushed_7174_Normal",
			"uri":"Poliigon_MetalSteelBrushed_7174_Normal.png"
		},
		{
			"mimeType":"image/jpeg",
			"name":"Poliigon_MetalSteelBrushed_7174_BaseColor",
			"uri":"Poliigon_MetalSteelBrushed_7174_BaseColor.jpg"
		},
		{
			"mimeType":"image/png",
			"name":"Poliigon_MetalSteelBrushed_7174_Metallic",
			"uri":"Poliigon_MetalSteelBrushed_7174_Metallic.png"
		}
	],
	"accessors":[
		{
			"bufferView":0,
			"componentType":5126,
			"count":645,
			"max":[
				8.51798152923584,
				4.480245113372803,
				8.51798152923584
			],
			"min":[
				-16.517982482910156,
				-2.3662683963775635,
				-8.51798152923584
			],
			"type":"VEC3"
		},
		{
			"bufferView":1,
			"componentType":5126,
			"count":645,
			"type":"VEC3"
		},
		{
			"bufferView":2,
			"componentType":5126,
			"count":645,
			"type":"VEC2"
		},
		{
			"bufferView":3,
			"componentType":5123,
			"count":1134,
			"type":"SCALAR"
		},
		{
			"bufferView":4,
			"componentType":5126,
			"count":1880,
			"max":[
				0.27757737040519714,
				2.0217835903167725,
				8.14383316040039
			],
			"min":[
				-16.081974029541016,
				-2,
				-8.14383316040039
			],
			"type":"VEC3"
		},
		{
			"bufferView":5,
			"componentType":5126,
			"count":1880,
			"type":"VEC3"
		},
		{
			"bufferView":6,
			"componentType":5126,
			"count":1880,
			"type":"VEC2"
		},
		{
			"bufferView":7,
			"componentType":5123,
			"count":3906,
			"type":"SCALAR"
		}
	],
	"bufferViews":[
		{
			"buffer":0,
			"byteLength":7740,
			"byteOffset":0,
			"target":34962
		},
		{
			"buffer":0,
			"byteLength":7740,
			"byteOffset":7740,
			"target":34962
		},
		{
			"buffer":0,
			"byteLength":5160,
			"byteOffset":15480,
			"target":34962
		},
		{
			"buffer":0,
			"byteLength":2268,
			"byteOffset":20640,
			"target":34963
		},
		{
			"buffer":0,
			"byteLength":22560,
			"byteOffset":22908,
			"target":34962
		},
		{
			"buffer":0,
			"byteLength":22560,
			"byteOffset":45468,
			"target":34962
		},
		{
			"buffer":0,
			"byteLength":15040,
			"byteOffset":68028,
			"target":34962
		},
		{
			"buffer":0,
			"byteLength":7812,
			"byteOffset":83068,
			"target":34963
		}
	],
	"samplers":[
		{
			"magFilter":9729,
			"minFilter":9987
		}
	],
	"buffers":[
		{
			"byteLength":90880,
			"uri":"MainHall.bin"
		}
	]
}
