{
	"asset":{
		"generator":"Khronos glTF Blender I/O v5.1.19",
		"version":"2.0"
	},
	"extensionsUsed":[
		"KHR_materials_specular"
	],
	"scene":0,
	"scenes":[
		{
			"name":"__exp__",
			"nodes":[
				0
			]
		}
	],
	"nodes":[
		{
			"mesh":0,
			"name":"MedBlock"
		}
	],
	"materials":[
		{
			"doubleSided":true,
			"extensions":{
				"KHR_materials_specular":{
					"specularColorTexture":{
						"index":0
					}
				}
			},
			"name":"Stainless steel",
			"normalTexture":{
				"index":1
			},
			"pbrMetallicRoughness":{
				"baseColorTexture":{
					"index":2
				},
				"metallicRoughnessTexture":{
					"index":3
				}
			}
		},
		{
			"doubleSided":true,
			"emissiveFactor":[
				1,
				1,
				1
			],
			"name":"WhiteEmission",
			"pbrMetallicRoughness":{
				"baseColorFactor":[
					0,
					0,
					0,
					1
				]
			}
		},
		{
			"doubleSided":true,
			"emissiveFactor":[
				1,
				1,
				1
			],
			"emissiveTexture":{
				"index":4
			},
			"name":"Emission",
			"pbrMetallicRoughness":{
				"baseColorFactor":[
					0,
					0,
					0,
					1
				]
			}
		}
	],
	"meshes":[
		{
			"name":"Plane.004",
			"primitives":[
				{
					"attributes":{
						"POSITION":0,
						"NORMAL":1,
						"TEXCOORD_0":2
					},
					"indices":3,
					"material":0
				},
				{
					"attributes":{
						"POSITION":4,
						"NORMAL":5,
						"TEXCOORD_0":6
					},
					"indices":7,
					"material":1
				},
				{
					"attributes":{
						"POSITION":8,
						"NORMAL":9,
						"TEXCOORD_0":10
					},
					"indices":11,
					"material":2
				}
			]
		}
	],
	"textures":[
		{
			"sampler":0,
			"source":0
		},
		{
			"sampler":0,
			"source":1
		},
		{
			"sampler":0,
			"source":2
		},
		{
			"sampler":0,
			"source":3
		},
		{
			"sampler":0,
			"source":4
		}
	],
	"images":[
		{
			"mimeType":"image/jpeg",
			"name":"Poliigon_MetalSteelBrushed_7174_AmbientOcclusion",
			"uri":"Poliigon_MetalSteelBrushed_7174_AmbientOcclusion.jpg"
		},
		{
			"mimeType":"image/png",
			"name":"Poliigon_MetalSteelBrushed_7174_Normal",
			"uri":"Poliigon_MetalSteelBrushed_7174_Normal.png"
		},
		{
			"mimeType":"image/jpeg",
			"name":"Poliigon_MetalSteelBrushed_7174_BaseColor",
			"uri":"Poliigon_MetalSteelBrushed_7174_BaseColor.jpg"
		},
		{
			"mimeType":"image/png",
			"name":"Poliigon_MetalSteelBrushed_7174_Metallic",
			"uri":"Poliigon_MetalSteelBrushed_7174_Metallic.png"
		},
		{
			"mimeType":"image/png",
			"name":"Hill",
			"uri":"Hill.png"
		}
	],
	"accessors":[
		{
			"bufferView":0,
			"componentType":5126,
			"count":2241,
			"max":[
				0.7057859301567078,
				2.0026330947875977,
				1.6903506517410278
			],
			"min":[
				-1.7060340642929077,
				-0.2500905990600586,
				-2.7060341835021973
			],
			"type":"VEC3"
		},
		{
			"bufferView":1,
			"componentType":5126,
			"count":2241,
			"type":"VEC3"
		},
		{
			"bufferView":2,
			"componentType":5126,
			"count":2241,
			"type":"VEC2"
		},
		{
			"bufferView":3,
			"componentType":5123,
			"count":3987,
			"type":"SCALAR"
		},
		{
			"bufferView":4,
			"componentType":5126,
			"count":229,
			"max":[
				0.470782607793808,
				1.9544174671173096,
				1.4707751274108887
			],
			"min":[
				-1.4674077033996582,
				-9.008714414449059e-07,
				-2.467388153076172
			],
			"type":"VEC3"
		},
		{
			"bufferView":5,
			"componentType":5126,
			"count":229,
			"type":"VEC3"
		},
		{
			"bufferView":6,
			"componentType":5126,
			"count":229,
			"type":"VEC2"
		},
		{
			"bufferView":7,
			"componentType":5123,
			"count":495,
			"type":"SCALAR"
		},
		{
			"bufferView":8,
			"componentType":5126,
			"count":100,
			"max":[
				0.4544026255607605,
				1.7977890968322754,
				1.3516535758972168
			],
			"min":[
				-1.4543476104736328,
				0.012977426871657372,
				-2.454347610473633
			],
			"type":"VEC3"
		},
		{
			"bufferView":9,
			"componentType":5126,
			"count":100,
			"type":"VEC3"
		},
		{
			"bufferView":10,
			"componentType":5126,
			"count":100,
			"type":"VEC2"
		},
		{
			"bufferView":11,
			"componentType":5123,
			"count":150,
			"type":"SCALAR"
		}
	],
	"bufferViews":[
		{
			"buffer":0,
			"byteLength":26892,
			"byteOffset":0,
			"target":34962
		},
		{
			"buffer":0,
			"byteLength":26892,
			"byteOffset":26892,
			"target":34962
		},
		{
			"buffer":0,
			"byteLength":17928,
			"byteOffset":53784,
			"target":34962
		},
		{
			"buffer":0,
			"byteLength":7974,
			"byteOffset":71712,
			"target":34963
		},
		{
			"buffer":0,
			"byteLength":2748,
			"byteOffset":79688,
			"target":34962
		},
		{
			"buffer":0,
			"byteLength":2748,
			"byteOffset":82436,
			"target":34962
		},
		{
			"buffer":0,
			"byteLength":1832,
			"byteOffset":85184,
			"target":34962
		},
		{
			"buffer":0,
			"byteLength":990,
			"byteOffset":87016,
			"target":34963
		},
		{
			"buffer":0,
			"byteLength":1200,
			"byteOffset":88008,
			"target":34962
		},
		{
			"buffer":0,
			"byteLength":1200,
			"byteOffset":89208,
			"target":34962
		},
		{
			"buffer":0,
			"byteLength":800,
			"byteOffset":90408,
			"target":34962
		},
		{
			"buffer":0,
			"byteLength":300,
			"byteOffset":91208,
			"target":34963
		}
	],
	"samplers":[
		{
			"magFilter":9729,
			"minFilter":9987
		}
	],
	"buffers":[
		{
			"byteLength":91508,
			"uri":"MedBlock.bin"
		}
	]
}
