{
	"asset":{
		"generator":"Khronos glTF Blender I/O v5.1.19",
		"version":"2.0"
	},
	"extensionsUsed":[
		"KHR_materials_specular"
	],
	"scene":0,
	"scenes":[
		{
			"name":"__exp__",
			"nodes":[
				0
			]
		}
	],
	"nodes":[
		{
			"mesh":0,
			"name":"UpgradeTable",
			"rotation":[
				0.5,
				-0.5000000596046448,
				0.5,
				0.5
			],
			"scale":[
				0.5,
				0.5,
				0.5
			]
		}
	],
	"materials":[
		{
			"doubleSided":true,
			"extensions":{
				"KHR_materials_specular":{
					"specularColorTexture":{
						"index":0
					}
				}
			},
			"name":"Stainless steel",
			"normalTexture":{
				"index":1
			},
			"pbrMetallicRoughness":{
				"baseColorTexture":{
					"index":2
				},
				"metallicRoughnessTexture":{
					"index":3
				}
			}
		},
		{
			"doubleSided":true,
			"emissiveFactor":[
				0.0026409507263451815,
				0.6151519417762756,
				1
			],
			"name":"Emissive",
			"pbrMetallicRoughness":{
				"baseColorFactor":[
					0,
					0,
					0,
					1
				]
			}
		}
	],
	"meshes":[
		{
			"name":"Torus.004",
			"primitives":[
				{
					"attributes":{
						"POSITION":0,
						"NORMAL":1,
						"TEXCOORD_0":2
					},
					"indices":3,
					"material":0
				},
				{
					"attributes":{
						"POSITION":4,
						"NORMAL":5,
						"TEXCOORD_0":6
					},
					"indices":7,
					"material":1
				}
			]
		}
	],
	"textures":[
		{
			"sampler":0,
			"source":0
		},
		{
			"sampler":0,
			"source":1
		},
		{
			"sampler":0,
			"source":2
		},
		{
			"sampler":0,
			"source":3
		}
	],
	"images":[
		{
			"mimeType":"image/jpeg",
			"name":"Poliigon_MetalSteelBrushed_7174_AmbientOcclusion",
			"uri":"Poliigon_MetalSteelBrushed_7174_AmbientOcclusion.jpg"
		},
		{
			"mimeType":"image/png",
			"name":"Poliigon_MetalSteelBrushed_7174_Normal",
			"uri":"Poliigon_MetalSteelBrushed_7174_Normal.png"
		},
		{
			"mimeType":"image/jpeg",
			"name":"Poliigon_MetalSteelBrushed_7174_BaseColor",
			"uri":"Poliigon_MetalSteelBrushed_7174_BaseColor.jpg"
		},
		{
			"mimeType":"image/png",
			"name":"Poliigon_MetalSteelBrushed_7174_Metallic",
			"uri":"Poliigon_MetalSteelBrushed_7174_Metallic.png"
		}
	],
	"accessors":[
		{
			"bufferView":0,
			"componentType":5126,
			"count":26488,
			"max":[
				2.562621593475342,
				1.9166128635406494,
				0.6693207621574402
			],
			"min":[
				-2.562621831893921,
				-1.9166128635406494,
				-4.455922603607178
			],
			"type":"VEC3"
		},
		{
			"bufferView":1,
			"componentType":5126,
			"count":26488,
			"type":"VEC3"
		},
		{
			"bufferView":2,
			"componentType":5126,
			"count":26488,
			"type":"VEC2"
		},
		{
			"bufferView":3,
			"componentType":5123,
			"count":89886,
			"type":"SCALAR"
		},
		{
			"bufferView":4,
			"componentType":5126,
			"count":388,
			"max":[
				2.274951457977295,
				1.7508844137191772,
				0.38165053725242615
			],
			"min":[
				-2.274951457977295,
				-1.7508844137191772,
				-4.168252468109131
			],
			"type":"VEC3"
		},
		{
			"bufferView":5,
			"componentType":5126,
			"count":388,
			"type":"VEC3"
		},
		{
			"bufferView":6,
			"componentType":5126,
			"count":388,
			"type":"VEC2"
		},
		{
			"bufferView":7,
			"componentType":5123,
			"count":1152,
			"type":"SCALAR"
		}
	],
	"bufferViews":[
		{
			"buffer":0,
			"byteLength":317856,
			"byteOffset":0,
			"target":34962
		},
		{
			"buffer":0,
			"byteLength":317856,
			"byteOffset":317856,
			"target":34962
		},
		{
			"buffer":0,
			"byteLength":211904,
			"byteOffset":635712,
			"target":34962
		},
		{
			"buffer":0,
			"byteLength":179772,
			"byteOffset":847616,
			"target":34963
		},
		{
			"buffer":0,
			"byteLength":4656,
			"byteOffset":1027388,
			"target":34962
		},
		{
			"buffer":0,
			"byteLength":4656,
			"byteOffset":1032044,
			"target":34962
		},
		{
			"buffer":0,
			"byteLength":3104,
			"byteOffset":1036700,
			"target":34962
		},
		{
			"buffer":0,
			"byteLength":2304,
			"byteOffset":1039804,
			"target":34963
		}
	],
	"samplers":[
		{
			"magFilter":9729,
			"minFilter":9987
		}
	],
	"buffers":[
		{
			"byteLength":1042108,
			"uri":"UpgradeTable.bin"
		}
	]
}
