<svg width="1920" height="1080" viewBox="0 0 1920 1080" fill="none" xmlns="http://www.w3.org/2000/svg">
<rect width="1920" height="1080" fill="black"/>
<path d="M1397.4 539.036C1404.58 539.036 1410.48 540.639 1414.74 544.215C1419.04 547.76 1421.12 552.669 1421.12 558.624C1421.12 563.269 1419.68 567.258 1416.67 570.353C1414.94 572.124 1412.72 573.507 1410.09 574.554C1413.24 575.507 1415.92 576.962 1418.05 578.993H1418.04C1421.53 582.263 1423.23 586.527 1423.23 591.552V611.236H1387.13V592.511C1387.13 591.91 1386.97 591.657 1386.81 591.496C1386.67 591.361 1386.4 591.172 1385.69 591.172H1333.95V611.236H1299.19V539.036H1397.4ZM1333.95 567.932H1383.77C1384.42 567.932 1384.66 567.754 1384.81 567.591C1385 567.383 1385.21 567.012 1385.21 566.208C1385.21 565.244 1384.96 564.964 1384.87 564.883C1384.58 564.621 1384.27 564.484 1383.77 564.484H1333.95V567.932Z" fill="#1B7083" stroke="#1B7083" stroke-width="5"/>
<path d="M1294.89 539.036V563.427H1205.61V564.38H1284.52V585.892H1205.61V586.844H1294.89V611.236H1170.85V539.036H1294.89Z" fill="#1B7083" stroke="#1B7083" stroke-width="5"/>
<path d="M1075.39 539.036V561.02H1129.91V539.036H1164.67V611.236H1129.91V587.332H1075.39V611.236H1040.63V539.036H1075.39Z" fill="#1B7083" stroke="#1B7083" stroke-width="5"/>
<path d="M969.365 537.5C975.461 537.5 981.587 537.792 987.744 538.375L987.743 538.376C993.932 538.892 999.934 539.633 1005.75 540.602C1011.57 541.507 1016.99 542.577 1022 543.812C1026.99 545.045 1031.32 546.354 1034.96 547.744L1037.69 548.785L1036.24 551.319L1027.31 566.967L1026.28 568.78L1025.99 568.68C1029.12 570.232 1031.75 572.174 1033.83 574.539C1036.65 577.741 1038.01 581.714 1038.01 586.272C1038.01 591.296 1036.31 595.66 1032.92 599.213C1029.72 602.624 1025.43 605.305 1020.18 607.325L1020.17 607.33L1020.16 607.335C1014.95 609.269 1009.07 610.651 1002.52 611.503C996.005 612.35 989.208 612.772 982.133 612.772C974.215 612.772 966.237 612.253 958.197 611.216V611.215C950.194 610.246 942.536 608.954 935.225 607.337L935.215 607.335L935.204 607.332C927.908 605.653 921.392 603.84 915.662 601.887L912.798 600.91L914.297 598.281L923.226 582.633L924.28 580.783L926.274 581.531C936.867 585.503 946.909 588.072 956.408 589.261C966.113 590.402 975.392 590.972 984.245 590.972C990.845 590.972 995.707 590.716 998.909 590.236C999.194 590.188 999.458 590.136 999.703 590.086C997.509 589.726 994.536 589.502 990.734 589.443H990.715L990.696 589.442C986.542 589.315 981.906 589.187 976.79 589.06H976.789C971.703 588.931 966.427 588.705 960.962 588.384H960.96C955.502 588.059 950.2 587.474 945.055 586.627L945.04 586.624L945.024 586.622C939.821 585.7 935.1 584.374 930.875 582.631C926.556 580.848 922.987 578.438 920.26 575.352L920.248 575.339L920.237 575.326C917.423 572.055 916.081 567.994 916.081 563.328C916.081 558.414 917.618 554.126 920.749 550.622L920.769 550.601C923.841 547.242 927.944 544.648 932.96 542.75C937.914 540.876 943.52 539.555 949.756 538.768C956.013 537.921 962.55 537.5 969.365 537.5ZM965.812 559.396C960.756 559.396 957.068 559.652 954.646 560.114C956.896 560.469 959.858 560.714 963.569 560.828C967.797 560.892 972.438 560.989 977.492 561.117H977.493C982.515 561.246 987.727 561.47 993.129 561.792H993.128C996.51 561.991 999.811 562.289 1003.03 562.684C997.698 561.705 992.194 560.958 986.515 560.441L986.503 560.44L986.492 560.439C979.533 559.744 972.639 559.396 965.812 559.396Z" fill="#1B7083" stroke="#1B7083" stroke-width="5"/>
<path d="M878.184 539.036L878.917 540.215L920.773 607.414L923.153 611.236H885.206L884.493 609.941L879.446 600.772H839.07L833.744 609.987L833.021 611.236H795.104L797.49 607.412L839.442 540.212L840.177 539.036H878.184ZM852.621 577.138L852.597 577.186L852.57 577.232L851.422 579.26H867.574L866.444 577.205L866.415 577.151L866.389 577.096L859.677 563.35L852.621 577.138Z" fill="#1B7083" stroke="#1B7083" stroke-width="5"/>
<path d="M711.921 539.036V583.964H801.202V611.236H677.162V539.036H711.921Z" fill="#1B7083" stroke="#1B7083" stroke-width="5"/>
<path d="M605.896 537.5C611.992 537.5 618.119 537.792 624.275 538.375L624.274 538.376C630.463 538.892 636.465 539.633 642.279 540.602C648.101 541.507 653.519 542.577 658.527 543.812C663.523 545.045 667.85 546.354 671.492 547.744L674.217 548.785L672.771 551.319L663.844 566.967L662.809 568.78L662.525 568.68C665.648 570.232 668.281 572.174 670.364 574.539C673.185 577.741 674.54 581.714 674.54 586.272C674.54 591.296 672.843 595.66 669.447 599.213C666.25 602.624 661.965 605.305 656.714 607.325L656.7 607.33L656.688 607.335C651.486 609.269 645.599 610.651 639.05 611.503C632.535 612.35 625.739 612.772 618.664 612.772C610.747 612.772 602.768 612.253 594.729 611.216V611.215C586.725 610.246 579.067 608.954 571.756 607.337L571.746 607.335L571.735 607.332C564.44 605.653 557.923 603.84 552.193 601.887L549.329 600.91L550.828 598.281L559.757 582.633L560.812 580.783L562.806 581.531C573.398 585.503 583.441 588.072 592.939 589.261C602.644 590.402 611.923 590.972 620.776 590.972C627.377 590.972 632.238 590.716 635.44 590.236C635.725 590.188 635.989 590.136 636.234 590.086C634.041 589.726 631.067 589.502 627.266 589.443H627.246L627.228 589.442C623.073 589.315 618.438 589.187 613.321 589.06H613.32C608.235 588.931 602.959 588.705 597.493 588.384H597.491C592.033 588.059 586.731 587.474 581.586 586.627L581.571 586.624L581.556 586.622C576.353 585.7 571.631 584.374 567.406 582.631C563.087 580.848 559.519 578.438 556.791 575.352L556.779 575.339L556.769 575.326C553.954 572.055 552.612 567.994 552.612 563.328C552.612 558.414 554.149 554.126 557.28 550.622L557.3 550.601C560.373 547.242 564.476 544.648 569.491 542.75C574.445 540.876 580.051 539.555 586.287 538.768C592.544 537.921 599.082 537.5 605.896 537.5ZM602.344 559.396C597.287 559.396 593.599 559.652 591.177 560.114C593.427 560.469 596.39 560.714 600.101 560.828C604.328 560.892 608.97 560.989 614.023 561.117H614.024C619.046 561.246 624.258 561.47 629.66 561.792H629.659C633.041 561.991 636.342 562.289 639.561 562.684C634.23 561.705 628.725 560.958 623.046 560.441L623.034 560.44L623.023 560.439C616.064 559.744 609.171 559.396 602.344 559.396Z" fill="#1B7083" stroke="#1B7083" stroke-width="5"/>
<path d="M1266.9 424.036C1274.08 424.036 1279.98 425.639 1284.24 429.215C1288.54 432.76 1290.62 437.669 1290.62 443.624C1290.62 448.269 1289.18 452.258 1286.17 455.353C1284.44 457.124 1282.22 458.507 1279.59 459.554C1282.74 460.507 1285.42 461.962 1287.55 463.993H1287.54C1291.03 467.263 1292.73 471.527 1292.73 476.552V496.236H1256.63V477.511C1256.63 476.91 1256.47 476.657 1256.31 476.496C1256.17 476.361 1255.9 476.172 1255.19 476.172H1203.45V496.236H1168.69V424.036H1266.9ZM1203.45 452.932H1253.27C1253.92 452.932 1254.16 452.754 1254.31 452.591C1254.5 452.383 1254.71 452.012 1254.71 451.208C1254.71 450.244 1254.46 449.964 1254.37 449.883C1254.08 449.621 1253.77 449.484 1253.27 449.484H1203.45V452.932Z" fill="#1B7083" stroke="#1B7083" stroke-width="5"/>
<path d="M1164.39 424.036V448.427H1075.11V449.38H1154.02V470.892H1075.11V471.844H1164.39V496.236H1040.35V424.036H1164.39Z" fill="#1B7083" stroke="#1B7083" stroke-width="5"/>
<path d="M1011.62 424.036C1018.87 424.036 1024.81 425.676 1029.01 429.358H1029.01C1033.25 432.947 1035.34 437.791 1035.34 443.624C1035.34 448.269 1033.9 452.258 1030.89 455.353C1029.15 457.13 1026.93 458.515 1024.29 459.564C1027.36 460.498 1030 461.909 1032.13 463.859H1032.13C1035.72 467.082 1037.45 471.406 1037.45 476.552C1037.45 482.346 1035.35 487.207 1031.13 490.911L1031.13 490.914C1026.96 494.56 1021.38 496.236 1014.7 496.236H913.412V424.036H1011.62ZM948.171 472.708H999.912C1000.62 472.708 1000.89 472.52 1001.02 472.385C1001.18 472.223 1001.35 471.97 1001.35 471.368C1001.35 470.718 1001.17 470.567 1001.1 470.505L1001.01 470.431L1000.93 470.351C1000.77 470.19 1000.51 470.028 999.912 470.028H948.171V472.708ZM948.171 450.244H998.375C999.085 450.244 999.353 450.055 999.488 449.92C999.649 449.759 999.812 449.505 999.812 448.904C999.812 448.254 999.634 448.103 999.559 448.041L999.472 447.968L999.392 447.887C999.231 447.726 998.977 447.564 998.375 447.564H948.171V450.244Z" fill="#1B7083" stroke="#1B7083" stroke-width="5"/>
<path d="M829.829 424.036L830.56 424.76L851.167 445.191L871.775 424.76L872.506 424.036H916.886L912.422 428.337L868.548 470.606V496.236H833.787V470.606L789.913 428.337L785.449 424.036H829.829Z" fill="#1B7083" stroke="#1B7083" stroke-width="5"/>
<path d="M744.076 422.5C758.828 422.5 771.462 424.61 781.896 428.93H781.896C792.297 433.172 800.279 439.207 805.663 447.112L807.592 449.945L804.306 450.917L774.449 459.749L773.143 460.136L774.449 460.522L804.306 469.354L807.592 470.327L805.663 473.159C800.28 481.064 792.299 487.131 781.896 491.438L781.884 491.443C771.453 495.695 758.824 497.772 744.076 497.772C731.858 497.772 721.098 496.343 711.839 493.433L711.834 493.432C702.66 490.528 695.369 486.375 690.136 480.866L690.131 480.86L690.125 480.854C684.827 475.207 682.152 468.452 682.152 460.712V459.56C682.152 451.819 684.828 445.09 690.136 439.502C695.369 433.929 702.66 429.745 711.834 426.841L711.839 426.839C721.098 423.929 731.858 422.5 744.076 422.5ZM744.076 449.58C738.589 449.58 733.831 450.08 729.777 451.048C725.762 452.022 722.84 453.344 720.851 454.903C718.968 456.379 718.257 457.907 718.257 459.56V460.712C718.257 462.368 718.973 463.937 720.87 465.479C722.858 467.031 725.771 468.348 729.77 469.318C733.83 470.225 738.592 470.692 744.076 470.692C751.329 470.692 757.166 469.845 761.672 468.244C766.255 466.575 769.556 464.26 771.759 461.396L772.728 460.136L771.759 458.876C769.559 456.017 766.263 453.734 761.681 452.127L761.662 452.121L761.645 452.114C757.149 450.458 751.322 449.58 744.076 449.58Z" fill="#1B7083" stroke="#1B7083" stroke-width="5"/>
<path d="M1392.4 529.036C1399.58 529.036 1405.48 530.639 1409.74 534.215C1414.04 537.76 1416.12 542.669 1416.12 548.624C1416.12 553.269 1414.68 557.258 1411.67 560.353C1409.94 562.124 1407.72 563.507 1405.09 564.554C1408.24 565.507 1410.92 566.962 1413.05 568.993H1413.04C1416.53 572.263 1418.23 576.527 1418.23 581.552V601.236H1382.13V582.511C1382.13 581.91 1381.97 581.657 1381.81 581.496C1381.67 581.361 1381.4 581.172 1380.69 581.172H1328.95V601.236H1294.19V529.036H1392.4ZM1328.95 557.932H1378.77C1379.42 557.932 1379.66 557.754 1379.81 557.591C1380 557.383 1380.21 557.012 1380.21 556.208C1380.21 555.244 1379.96 554.964 1379.87 554.883C1379.58 554.621 1379.27 554.484 1378.77 554.484H1328.95V557.932Z" fill="#74B1BE" stroke="#74B1BE" stroke-width="5"/>
<path d="M1289.89 529.036V553.427H1200.61V554.38H1279.52V575.892H1200.61V576.844H1289.89V601.236H1165.85V529.036H1289.89Z" fill="#74B1BE" stroke="#74B1BE" stroke-width="5"/>
<path d="M1070.39 529.036V551.02H1124.91V529.036H1159.67V601.236H1124.91V577.332H1070.39V601.236H1035.63V529.036H1070.39Z" fill="#74B1BE" stroke="#74B1BE" stroke-width="5"/>
<path d="M964.365 527.5C970.461 527.5 976.587 527.792 982.744 528.375L982.743 528.376C988.932 528.892 994.934 529.633 1000.75 530.602C1006.57 531.507 1011.99 532.577 1017 533.812C1021.99 535.045 1026.32 536.354 1029.96 537.744L1032.69 538.785L1031.24 541.319L1022.31 556.967L1021.28 558.78L1020.99 558.68C1024.12 560.232 1026.75 562.174 1028.83 564.539C1031.65 567.741 1033.01 571.714 1033.01 576.272C1033.01 581.296 1031.31 585.66 1027.92 589.213C1024.72 592.624 1020.43 595.305 1015.18 597.325L1015.17 597.33L1015.16 597.335C1009.95 599.269 1004.07 600.651 997.52 601.503C991.005 602.35 984.208 602.772 977.133 602.772C969.215 602.772 961.237 602.253 953.197 601.216V601.215C945.194 600.246 937.536 598.954 930.225 597.337L930.215 597.335L930.204 597.332C922.908 595.653 916.392 593.84 910.662 591.887L907.798 590.91L909.297 588.281L918.226 572.633L919.28 570.783L921.274 571.531C931.867 575.503 941.909 578.072 951.408 579.261C961.113 580.402 970.392 580.972 979.245 580.972C985.845 580.972 990.707 580.716 993.909 580.236C994.194 580.188 994.458 580.136 994.703 580.086C992.509 579.726 989.536 579.502 985.734 579.443H985.715L985.696 579.442C981.542 579.315 976.906 579.187 971.79 579.06H971.789C966.703 578.931 961.427 578.705 955.962 578.384H955.96C950.502 578.059 945.2 577.474 940.055 576.627L940.04 576.624L940.024 576.622C934.821 575.7 930.1 574.374 925.875 572.631C921.556 570.848 917.987 568.438 915.26 565.352L915.248 565.339L915.237 565.326C912.423 562.055 911.081 557.994 911.081 553.328C911.081 548.414 912.618 544.126 915.749 540.622L915.769 540.601C918.841 537.242 922.944 534.648 927.96 532.75C932.914 530.876 938.52 529.555 944.756 528.768C951.013 527.921 957.55 527.5 964.365 527.5ZM960.812 549.396C955.756 549.396 952.068 549.652 949.646 550.114C951.896 550.469 954.858 550.714 958.569 550.828C962.797 550.892 967.438 550.989 972.492 551.117H972.493C977.515 551.246 982.727 551.47 988.129 551.792H988.128C991.51 551.991 994.811 552.289 998.029 552.684C992.698 551.705 987.194 550.958 981.515 550.441L981.503 550.44L981.492 550.439C974.533 549.744 967.639 549.396 960.812 549.396Z" fill="#74B1BE" stroke="#74B1BE" stroke-width="5"/>
<path d="M873.184 529.036L873.917 530.215L915.773 597.414L918.153 601.236H880.206L879.493 599.941L874.446 590.772H834.07L828.744 599.987L828.021 601.236H790.104L792.49 597.412L834.442 530.212L835.177 529.036H873.184ZM847.621 567.138L847.597 567.186L847.57 567.232L846.422 569.26H862.574L861.444 567.205L861.415 567.151L861.389 567.096L854.677 553.35L847.621 567.138Z" fill="#74B1BE" stroke="#74B1BE" stroke-width="5"/>
<path d="M706.921 529.036V573.964H796.202V601.236H672.162V529.036H706.921Z" fill="#74B1BE" stroke="#74B1BE" stroke-width="5"/>
<path d="M600.896 527.5C606.992 527.5 613.119 527.792 619.275 528.375L619.274 528.376C625.463 528.892 631.465 529.633 637.279 530.602C643.101 531.507 648.519 532.577 653.527 533.812C658.523 535.045 662.85 536.354 666.492 537.744L669.217 538.785L667.771 541.319L658.844 556.967L657.809 558.78L657.525 558.68C660.648 560.232 663.281 562.174 665.364 564.539C668.185 567.741 669.54 571.714 669.54 576.272C669.54 581.296 667.843 585.66 664.447 589.213C661.25 592.624 656.965 595.305 651.714 597.325L651.7 597.33L651.688 597.335C646.486 599.269 640.599 600.651 634.05 601.503C627.535 602.35 620.739 602.772 613.664 602.772C605.747 602.772 597.768 602.253 589.729 601.216V601.215C581.725 600.246 574.067 598.954 566.756 597.337L566.746 597.335L566.735 597.332C559.44 595.653 552.923 593.84 547.193 591.887L544.329 590.91L545.828 588.281L554.757 572.633L555.812 570.783L557.806 571.531C568.398 575.503 578.441 578.072 587.939 579.261C597.644 580.402 606.923 580.972 615.776 580.972C622.377 580.972 627.238 580.716 630.44 580.236C630.725 580.188 630.989 580.136 631.234 580.086C629.041 579.726 626.067 579.502 622.266 579.443H622.246L622.228 579.442C618.073 579.315 613.438 579.187 608.321 579.06H608.32C603.235 578.931 597.959 578.705 592.493 578.384H592.491C587.033 578.059 581.731 577.474 576.586 576.627L576.571 576.624L576.556 576.622C571.353 575.7 566.631 574.374 562.406 572.631C558.087 570.848 554.519 568.438 551.791 565.352L551.779 565.339L551.769 565.326C548.954 562.055 547.612 557.994 547.612 553.328C547.612 548.414 549.149 544.126 552.28 540.622L552.3 540.601C555.373 537.242 559.476 534.648 564.491 532.75C569.445 530.876 575.051 529.555 581.287 528.768C587.544 527.921 594.082 527.5 600.896 527.5ZM597.344 549.396C592.287 549.396 588.599 549.652 586.177 550.114C588.427 550.469 591.39 550.714 595.101 550.828C599.328 550.892 603.97 550.989 609.023 551.117H609.024C614.046 551.246 619.258 551.47 624.66 551.792H624.659C628.041 551.991 631.342 552.289 634.561 552.684C629.23 551.705 623.725 550.958 618.046 550.441L618.034 550.44L618.023 550.439C611.064 549.744 604.171 549.396 597.344 549.396Z" fill="#74B1BE" stroke="#74B1BE" stroke-width="5"/>
<path d="M1261.9 414.036C1269.08 414.036 1274.98 415.639 1279.24 419.215C1283.54 422.76 1285.62 427.669 1285.62 433.624C1285.62 438.269 1284.18 442.258 1281.17 445.353C1279.44 447.124 1277.22 448.507 1274.59 449.554C1277.74 450.507 1280.42 451.962 1282.55 453.993H1282.54C1286.03 457.263 1287.73 461.527 1287.73 466.552V486.236H1251.63V467.511C1251.63 466.91 1251.47 466.657 1251.31 466.496C1251.17 466.361 1250.9 466.172 1250.19 466.172H1198.45V486.236H1163.69V414.036H1261.9ZM1198.45 442.932H1248.27C1248.92 442.932 1249.16 442.754 1249.31 442.591C1249.5 442.383 1249.71 442.012 1249.71 441.208C1249.71 440.244 1249.46 439.964 1249.37 439.883C1249.08 439.621 1248.77 439.484 1248.27 439.484H1198.45V442.932Z" fill="#74B1BE" stroke="#74B1BE" stroke-width="5"/>
<path d="M1159.39 414.036V438.427H1070.11V439.38H1149.02V460.892H1070.11V461.844H1159.39V486.236H1035.35V414.036H1159.39Z" fill="#74B1BE" stroke="#74B1BE" stroke-width="5"/>
<path d="M1006.62 414.036C1013.87 414.036 1019.81 415.676 1024.01 419.358H1024.01C1028.25 422.947 1030.34 427.791 1030.34 433.624C1030.34 438.269 1028.9 442.258 1025.89 445.353C1024.15 447.13 1021.93 448.515 1019.29 449.564C1022.36 450.498 1025 451.909 1027.13 453.859H1027.13C1030.72 457.082 1032.45 461.406 1032.45 466.552C1032.45 472.346 1030.35 477.207 1026.13 480.911L1026.13 480.914C1021.96 484.56 1016.38 486.236 1009.7 486.236H908.412V414.036H1006.62ZM943.171 462.708H994.912C995.621 462.708 995.889 462.52 996.024 462.385C996.185 462.223 996.347 461.97 996.347 461.368C996.347 460.718 996.17 460.567 996.095 460.505L996.008 460.431L995.928 460.351C995.767 460.19 995.513 460.028 994.912 460.028H943.171V462.708ZM943.171 440.244H993.375C994.085 440.244 994.353 440.055 994.488 439.92C994.649 439.759 994.812 439.505 994.812 438.904C994.812 438.254 994.634 438.103 994.559 438.041L994.472 437.968L994.392 437.887C994.231 437.726 993.977 437.564 993.375 437.564H943.171V440.244Z" fill="#74B1BE" stroke="#74B1BE" stroke-width="5"/>
<path d="M824.829 414.036L825.56 414.76L846.167 435.191L866.775 414.76L867.506 414.036H911.886L907.422 418.337L863.548 460.606V486.236H828.787V460.606L784.913 418.337L780.449 414.036H824.829Z" fill="#74B1BE" stroke="#74B1BE" stroke-width="5"/>
<path d="M739.076 412.5C753.828 412.5 766.462 414.61 776.896 418.93H776.896C787.297 423.172 795.279 429.207 800.663 437.112L802.592 439.945L799.306 440.917L769.449 449.749L768.143 450.136L769.449 450.522L799.306 459.354L802.592 460.327L800.663 463.159C795.28 471.064 787.299 477.131 776.896 481.438L776.884 481.443C766.453 485.695 753.824 487.772 739.076 487.772C726.858 487.772 716.098 486.343 706.839 483.433L706.834 483.432C697.66 480.528 690.369 476.375 685.136 470.866L685.131 470.86L685.125 470.854C679.827 465.207 677.152 458.452 677.152 450.712V449.56C677.152 441.819 679.828 435.09 685.136 429.502C690.369 423.929 697.66 419.745 706.834 416.841L706.839 416.839C716.098 413.929 726.858 412.5 739.076 412.5ZM739.076 439.58C733.589 439.58 728.831 440.08 724.777 441.048C720.762 442.022 717.84 443.344 715.851 444.903C713.968 446.379 713.257 447.907 713.257 449.56V450.712C713.257 452.368 713.973 453.937 715.87 455.479C717.858 457.031 720.771 458.348 724.77 459.318C728.83 460.225 733.592 460.692 739.076 460.692C746.329 460.692 752.166 459.845 756.672 458.244C761.255 456.575 764.556 454.26 766.759 451.396L767.728 450.136L766.759 448.876C764.559 446.017 761.263 443.734 756.681 442.127L756.662 442.121L756.645 442.114C752.149 440.458 746.322 439.58 739.076 439.58Z" fill="#74B1BE" stroke="#74B1BE" stroke-width="5"/>
<path d="M1287.69 589.736V522.536H1383.4C1390.25 522.536 1395.5 524.072 1399.15 527.144C1402.8 530.152 1404.62 534.312 1404.62 539.624C1404.62 543.72 1403.37 547.048 1400.88 549.608C1398.38 552.168 1394.48 553.928 1389.16 554.888V556.808C1394.99 557.32 1399.37 558.984 1402.32 561.8C1405.26 564.552 1406.73 568.136 1406.73 572.552V589.736H1375.63V573.512C1375.63 572.36 1375.28 571.432 1374.57 570.728C1373.87 570.024 1372.91 569.672 1371.69 569.672H1317.45V589.736H1287.69ZM1317.45 551.432H1369.77C1370.99 551.432 1371.95 551.048 1372.65 550.28C1373.36 549.512 1373.71 548.488 1373.71 547.208C1373.71 545.8 1373.32 544.744 1372.56 544.04C1371.79 543.336 1370.86 542.984 1369.77 542.984H1317.45V551.432Z" fill="white"/>
<path d="M1159.35 589.736V522.536H1278.39V541.928H1189.11V547.88H1268.02V564.392H1189.11V570.344H1278.39V589.736H1159.35Z" fill="white"/>
<path d="M1029.13 589.736V522.536H1058.89V544.52H1118.41V522.536H1148.17V589.736H1118.41V565.832H1058.89V589.736H1029.13Z" fill="white"/>
<path d="M968.133 591.272C960.325 591.272 952.453 590.76 944.517 589.736C936.581 588.776 928.997 587.496 921.765 585.896C914.533 584.232 908.101 582.44 902.469 580.52L911.397 564.872C922.149 568.904 932.389 571.528 942.117 572.744C951.909 573.896 961.285 574.472 970.245 574.472C976.901 574.472 981.925 574.216 985.317 573.704C988.709 573.128 990.405 572.232 990.405 571.016C990.405 569.928 989.157 569.16 986.661 568.712C984.229 568.264 980.933 568.008 976.773 567.944C972.613 567.816 967.973 567.688 962.853 567.56C957.797 567.432 952.549 567.208 947.109 566.888C941.733 566.568 936.517 565.992 931.461 565.16C926.405 564.264 921.861 562.984 917.829 561.32C913.797 559.656 910.565 557.448 908.133 554.696C905.765 551.944 904.581 548.488 904.581 544.328C904.581 539.976 905.925 536.296 908.613 533.288C911.365 530.28 915.109 527.88 919.845 526.088C924.581 524.296 929.989 523.016 936.069 522.248C942.213 521.416 948.645 521 955.365 521C961.381 521 967.429 521.288 973.509 521.864C979.653 522.376 985.605 523.112 991.365 524.072C997.125 524.968 1002.47 526.024 1007.4 527.24C1012.32 528.456 1016.55 529.736 1020.07 531.08L1011.14 546.728C1005.7 544.808 999.685 543.208 993.093 541.928C986.565 540.584 979.781 539.592 972.741 538.952C965.701 538.248 958.725 537.896 951.813 537.896C941.125 537.896 935.781 539.016 935.781 541.256C935.781 542.28 937.029 543.016 939.525 543.464C942.021 543.912 945.349 544.2 949.509 544.328C953.733 544.392 958.373 544.488 963.429 544.616C968.421 544.744 973.605 544.968 978.981 545.288C984.421 545.608 989.637 546.184 994.629 547.016C999.685 547.848 1004.23 549.096 1008.26 550.76C1012.36 552.36 1015.59 554.504 1017.96 557.192C1020.32 559.88 1021.51 563.24 1021.51 567.272C1021.51 571.688 1020.04 575.432 1017.09 578.504C1014.21 581.576 1010.28 584.072 1005.28 585.992C1000.29 587.848 994.597 589.192 988.197 590.024C981.797 590.856 975.109 591.272 968.133 591.272Z" fill="white"/>
<path d="M785.611 589.736L827.563 522.536H862.795L904.651 589.736H872.683L866.923 579.272H823.627L817.579 589.736H785.611ZM836.395 557L833.131 562.76H857.803L854.635 557L846.667 540.68H844.747L836.395 557Z" fill="white"/>
<path d="M665.662 589.736V522.536H695.422V567.464H784.702V589.736H665.662Z" fill="white"/>
<path d="M604.664 591.272C596.856 591.272 588.984 590.76 581.048 589.736C573.112 588.776 565.528 587.496 558.296 585.896C551.064 584.232 544.632 582.44 539 580.52L547.928 564.872C558.68 568.904 568.92 571.528 578.648 572.744C588.44 573.896 597.816 574.472 606.776 574.472C613.432 574.472 618.456 574.216 621.848 573.704C625.24 573.128 626.936 572.232 626.936 571.016C626.936 569.928 625.688 569.16 623.192 568.712C620.76 568.264 617.464 568.008 613.304 567.944C609.144 567.816 604.504 567.688 599.384 567.56C594.328 567.432 589.08 567.208 583.64 566.888C578.264 566.568 573.048 565.992 567.992 565.16C562.936 564.264 558.392 562.984 554.36 561.32C550.328 559.656 547.096 557.448 544.664 554.696C542.296 551.944 541.112 548.488 541.112 544.328C541.112 539.976 542.456 536.296 545.144 533.288C547.896 530.28 551.64 527.88 556.376 526.088C561.112 524.296 566.52 523.016 572.6 522.248C578.744 521.416 585.176 521 591.896 521C597.912 521 603.96 521.288 610.04 521.864C616.184 522.376 622.136 523.112 627.896 524.072C633.656 524.968 639 526.024 643.928 527.24C648.856 528.456 653.08 529.736 656.6 531.08L647.672 546.728C642.232 544.808 636.216 543.208 629.624 541.928C623.096 540.584 616.312 539.592 609.272 538.952C602.232 538.248 595.256 537.896 588.344 537.896C577.656 537.896 572.312 539.016 572.312 541.256C572.312 542.28 573.56 543.016 576.056 543.464C578.552 543.912 581.88 544.2 586.04 544.328C590.264 544.392 594.904 544.488 599.96 544.616C604.952 544.744 610.136 544.968 615.512 545.288C620.952 545.608 626.168 546.184 631.16 547.016C636.216 547.848 640.76 549.096 644.792 550.76C648.888 552.36 652.12 554.504 654.488 557.192C656.856 559.88 658.04 563.24 658.04 567.272C658.04 571.688 656.568 575.432 653.624 578.504C650.744 581.576 646.808 584.072 641.816 585.992C636.824 587.848 631.128 589.192 624.728 590.024C618.328 590.856 611.64 591.272 604.664 591.272Z" fill="white"/>
<path d="M1157.19 474.736V407.536H1252.9C1259.75 407.536 1265 409.072 1268.65 412.144C1272.3 415.152 1274.12 419.312 1274.12 424.624C1274.12 428.72 1272.87 432.048 1270.38 434.608C1267.88 437.168 1263.98 438.928 1258.66 439.888V441.808C1264.49 442.32 1268.87 443.984 1271.82 446.8C1274.76 449.552 1276.23 453.136 1276.23 457.552V474.736H1245.13V458.512C1245.13 457.36 1244.78 456.432 1244.07 455.728C1243.37 455.024 1242.41 454.672 1241.19 454.672H1186.95V474.736H1157.19ZM1186.95 436.432H1239.27C1240.49 436.432 1241.45 436.048 1242.15 435.28C1242.86 434.512 1243.21 433.488 1243.21 432.208C1243.21 430.8 1242.82 429.744 1242.06 429.04C1241.29 428.336 1240.36 427.984 1239.27 427.984H1186.95V436.432Z" fill="white"/>
<path d="M1028.85 474.736V407.536H1147.89V426.928H1058.61V432.88H1137.52V449.392H1058.61V455.344H1147.89V474.736H1028.85Z" fill="white"/>
<path d="M901.912 474.736V407.536H997.624C1004.54 407.536 1009.78 409.104 1013.37 412.24C1017.02 415.312 1018.84 419.44 1018.84 424.624C1018.84 428.72 1017.59 432.048 1015.1 434.608C1012.6 437.168 1008.7 438.928 1003.38 439.888V441.808C1009.08 442.32 1013.43 443.952 1016.44 446.704C1019.45 449.392 1020.95 453.008 1020.95 457.552C1020.95 462.672 1019.13 466.832 1015.48 470.032C1011.9 473.168 1006.97 474.736 1000.7 474.736H901.912ZM931.672 433.744H984.376C985.592 433.744 986.552 433.392 987.256 432.688C987.96 431.984 988.312 431.056 988.312 429.904C988.312 428.688 987.928 427.76 987.16 427.12C986.456 426.416 985.528 426.064 984.376 426.064H931.672V433.744ZM931.672 456.208H985.912C987.128 456.208 988.088 455.856 988.792 455.152C989.496 454.448 989.848 453.52 989.848 452.368C989.848 451.152 989.464 450.224 988.696 449.584C987.992 448.88 987.064 448.528 985.912 448.528H931.672V456.208Z" fill="white"/>
<path d="M822.287 474.736V450.544L777.647 407.536H814.799L837.167 429.712L859.535 407.536H896.687L852.047 450.544V474.736H822.287Z" fill="white"/>
<path d="M730.076 476.272C718.044 476.272 707.548 474.864 698.588 472.048C689.692 469.232 682.812 465.264 677.948 460.144C673.084 454.96 670.652 448.816 670.652 441.712V440.56C670.652 433.456 673.084 427.344 677.948 422.224C682.812 417.04 689.692 413.04 698.588 410.224C707.548 407.408 718.044 406 730.076 406C744.604 406 756.892 408.08 766.94 412.24C776.988 416.336 784.54 422.096 789.596 429.52L759.74 438.352C757.18 435.024 753.436 432.496 748.508 430.768C743.644 428.976 737.5 428.08 730.076 428.08C724.444 428.08 719.484 428.592 715.196 429.616C710.972 430.64 707.676 432.08 705.308 433.936C702.94 435.792 701.756 438 701.756 440.56V441.712C701.756 444.272 702.94 446.512 705.308 448.432C707.676 450.288 710.972 451.728 715.196 452.752C719.484 453.712 724.444 454.192 730.076 454.192C737.5 454.192 743.644 453.328 748.508 451.6C753.436 449.808 757.18 447.248 759.74 443.92L789.596 452.752C784.54 460.176 776.988 465.968 766.94 470.128C756.892 474.224 744.604 476.272 730.076 476.272Z" fill="white"/>
<path d="M1148.89 1013.42C1143.37 1013.42 1137.8 1013.06 1132.19 1012.33C1126.58 1011.65 1121.22 1010.75 1116.1 1009.62C1110.99 1008.44 1106.44 1007.17 1102.46 1005.81L1108.77 994.748C1116.37 997.6 1123.62 999.455 1130.5 1000.32C1137.42 1001.13 1144.05 1001.54 1150.39 1001.54C1155.09 1001.54 1158.65 1001.36 1161.04 1000.99C1163.44 1000.59 1164.64 999.953 1164.64 999.093C1164.64 998.324 1163.76 997.781 1162 997.464C1160.28 997.147 1157.94 996.966 1155 996.921C1152.06 996.83 1148.78 996.74 1145.16 996.649C1141.58 996.559 1137.87 996.4 1134.03 996.174C1130.22 995.948 1126.54 995.54 1122.96 994.952C1119.38 994.318 1116.17 993.413 1113.32 992.236C1110.47 991.06 1108.18 989.498 1106.46 987.552C1104.79 985.606 1103.95 983.162 1103.95 980.22C1103.95 977.143 1104.9 974.54 1106.8 972.413C1108.75 970.286 1111.4 968.589 1114.75 967.322C1118.09 966.054 1121.92 965.149 1126.22 964.606C1130.56 964.018 1135.11 963.724 1139.86 963.724C1144.12 963.724 1148.39 963.927 1152.69 964.334C1157.04 964.697 1161.25 965.217 1165.32 965.896C1169.39 966.53 1173.17 967.276 1176.66 968.136C1180.14 968.996 1183.13 969.901 1185.62 970.852L1179.31 981.917C1175.46 980.56 1171.21 979.428 1166.54 978.523C1161.93 977.573 1157.13 976.871 1152.15 976.419C1147.17 975.921 1142.24 975.672 1137.35 975.672C1129.79 975.672 1126.01 976.464 1126.01 978.048C1126.01 978.772 1126.9 979.292 1128.66 979.609C1130.43 979.926 1132.78 980.13 1135.72 980.22C1138.71 980.266 1141.99 980.333 1145.57 980.424C1149.1 980.514 1152.76 980.673 1156.56 980.899C1160.41 981.125 1164.1 981.533 1167.63 982.121C1171.21 982.709 1174.42 983.592 1177.27 984.769C1180.17 985.9 1182.45 987.416 1184.13 989.317C1185.8 991.218 1186.64 993.594 1186.64 996.445C1186.64 999.568 1185.6 1002.22 1183.52 1004.39C1181.48 1006.56 1178.7 1008.33 1175.17 1009.68C1171.64 1011 1167.61 1011.95 1163.08 1012.53C1158.56 1013.12 1153.83 1013.42 1148.89 1013.42Z" fill="#843D3D"/>
<path d="M1014.4 1012.33V996.581H1045.96V980.56H1014.4V964.81H1098.58V980.56H1067.01V996.581H1098.58V1012.33H1014.4Z" fill="#843D3D"/>
<path d="M972.279 1013.42C966.757 1013.42 961.19 1013.06 955.578 1012.33C949.966 1011.65 944.603 1010.75 939.489 1009.62C934.375 1008.44 929.826 1007.17 925.843 1005.81L932.157 994.748C939.76 997.6 947.002 999.455 953.881 1000.32C960.805 1001.13 967.436 1001.54 973.772 1001.54C978.479 1001.54 982.032 1001.36 984.43 1000.99C986.829 1000.59 988.028 999.953 988.028 999.093C988.028 998.324 987.146 997.781 985.381 997.464C983.661 997.147 981.33 996.966 978.388 996.921C975.447 996.83 972.165 996.74 968.545 996.649C964.969 996.559 961.258 996.4 957.411 996.174C953.609 995.948 949.921 995.54 946.345 994.952C942.77 994.318 939.557 993.413 936.705 992.236C933.854 991.06 931.568 989.498 929.849 987.552C928.174 985.606 927.337 983.162 927.337 980.22C927.337 977.143 928.287 974.54 930.188 972.413C932.134 970.286 934.782 968.589 938.131 967.322C941.48 966.054 945.304 965.149 949.604 964.606C953.949 964.018 958.497 963.724 963.249 963.724C967.504 963.724 971.781 963.927 976.08 964.334C980.425 964.697 984.634 965.217 988.707 965.896C992.781 966.53 996.56 967.276 1000.04 968.136C1003.53 968.996 1006.52 969.901 1009.01 970.852L1002.69 981.917C998.845 980.56 994.591 979.428 989.929 978.523C985.313 977.573 980.516 976.871 975.537 976.419C970.559 975.921 965.626 975.672 960.738 975.672C953.179 975.672 949.4 976.464 949.4 978.048C949.4 978.772 950.283 979.292 952.048 979.609C953.813 979.926 956.166 980.13 959.108 980.22C962.095 980.266 965.377 980.333 968.952 980.424C972.482 980.514 976.148 980.673 979.95 980.899C983.797 981.125 987.485 981.533 991.016 982.121C994.591 982.709 997.804 983.592 1000.66 984.769C1003.55 985.9 1005.84 987.416 1007.51 989.317C1009.19 991.218 1010.02 993.594 1010.02 996.445C1010.02 999.568 1008.98 1002.22 1006.9 1004.39C1004.86 1006.56 1002.08 1008.33 998.551 1009.68C995.021 1011 990.993 1011.95 986.467 1012.53C981.941 1013.12 977.212 1013.42 972.279 1013.42Z" fill="#843D3D"/>
<path d="M837.781 1012.33V996.581H869.349V980.56H837.781V964.81H921.962V980.56H890.394V996.581H921.962V1012.33H837.781Z" fill="#843D3D"/>
<path d="M746.713 1012.33V964.81H778.145L788.804 985.38L799.462 964.81H830.894V1012.33H810.528V983.14L810.46 983.343L795.389 1012.33H782.219L767.148 983.343L767.08 983.14V1012.33H746.713Z" fill="#843D3D"/>
<path d="M1197.1 931.007V883.486H1218.14V915.257H1281.28V931.007H1197.1Z" fill="#843D3D"/>
<path d="M1106.34 931.007V883.486H1190.52V897.199H1127.39V901.408H1183.19V913.085H1127.39V917.294H1190.52V931.007H1106.34Z" fill="#843D3D"/>
<path d="M1048.8 931.007V899.236H1017.23V883.486H1101.42V899.236H1069.85V931.007H1048.8Z" fill="#843D3D"/>
<path d="M930.919 931.007V883.486H998.603C1003.45 883.486 1007.16 884.572 1009.74 886.744C1012.32 888.872 1013.61 891.813 1013.61 895.57C1013.61 898.466 1012.72 900.82 1010.96 902.63C1009.19 904.441 1006.43 905.685 1002.68 906.364V907.722C1006.79 908.084 1009.9 909.261 1011.98 911.252C1014.06 913.198 1015.1 915.733 1015.1 918.855V931.007H993.104V919.534C993.104 918.72 992.855 918.063 992.357 917.566C991.86 917.068 991.181 916.819 990.321 916.819H951.964V931.007H930.919ZM951.964 903.92H988.963C989.823 903.92 990.502 903.649 991 903.105C991.497 902.562 991.746 901.838 991.746 900.933C991.746 899.937 991.475 899.191 990.932 898.693C990.389 898.195 989.732 897.946 988.963 897.946H951.964V903.92Z" fill="#843D3D"/>
<path d="M843.239 931.007L872.906 883.486H897.821L927.42 931.007H904.813L900.74 923.608H870.123L865.846 931.007H843.239ZM879.152 907.858L876.844 911.931H894.291L892.051 907.858L886.416 896.317H885.058L879.152 907.858Z" fill="#843D3D"/>
<path d="M738.99 931.007V883.486H795.269C800.926 883.486 805.837 884.436 810 886.337C814.209 888.238 817.445 890.931 819.708 894.416C822.017 897.901 823.171 902.042 823.171 906.839V907.654C823.171 912.451 822.017 916.592 819.708 920.077C817.445 923.562 814.209 926.255 810 928.156C805.837 930.057 800.926 931.007 795.269 931.007H738.99ZM760.035 915.665H793.232C795.631 915.665 797.554 914.963 799.003 913.56C800.451 912.112 801.175 910.143 801.175 907.654V906.839C801.175 904.35 800.451 902.404 799.003 901.001C797.554 899.553 795.631 898.828 793.232 898.828H760.035V915.665Z" fill="#843D3D"/>
<path d="M692.798 932.093C688.001 932.093 683.045 931.822 677.931 931.279C672.817 930.781 667.816 930.057 662.928 929.106C658.085 928.156 653.604 927.07 649.486 925.848L655.392 912.067C661.909 913.832 668.2 915.122 674.265 915.936C680.375 916.751 686.372 917.158 692.255 917.158C694.654 917.158 696.962 917.113 699.18 917.022C701.443 916.932 703.479 916.751 705.29 916.479C707.1 916.208 708.526 915.823 709.567 915.325C710.653 914.782 711.196 914.081 711.196 913.221C711.196 912.361 710.653 911.637 709.567 911.048C708.48 910.46 707.009 909.985 705.154 909.623C703.298 909.261 701.171 909.012 698.772 908.876C696.419 908.695 693.952 908.604 691.373 908.604C687.933 908.604 684.493 908.717 681.054 908.944C677.614 909.17 674.469 909.532 671.617 910.03L669.852 903.173L693.613 897.607H654.034L654.713 883.486H728.575V895.095L706.851 900.594C712.146 900.503 716.785 901.069 720.768 902.291C724.796 903.513 727.919 905.233 730.137 907.45C732.399 909.668 733.531 912.225 733.531 915.122C733.531 917.475 732.784 919.58 731.291 921.435C729.842 923.245 727.806 924.83 725.181 926.187C722.601 927.545 719.591 928.654 716.152 929.514C712.712 930.374 709.001 931.007 705.018 931.415C701.035 931.867 696.962 932.093 692.798 932.093Z" fill="#843D3D"/>
<path d="M1145.36 1009.88C1139.84 1009.88 1134.27 1009.52 1128.66 1008.8C1123.04 1008.12 1117.68 1007.21 1112.57 1006.08C1107.45 1004.9 1102.9 1003.64 1098.92 1002.28L1105.24 991.213C1112.84 994.064 1120.08 995.919 1126.96 996.779C1133.88 997.594 1140.51 998.001 1146.85 998.001C1151.56 998.001 1155.11 997.82 1157.51 997.458C1159.91 997.051 1161.11 996.417 1161.11 995.557C1161.11 994.788 1160.22 994.245 1158.46 993.928C1156.74 993.611 1154.41 993.43 1151.47 993.385C1148.53 993.294 1145.24 993.204 1141.62 993.113C1138.05 993.023 1134.34 992.865 1130.49 992.638C1126.69 992.412 1123 992.005 1119.42 991.416C1115.85 990.783 1112.64 989.877 1109.78 988.701C1106.93 987.524 1104.65 985.963 1102.93 984.016C1101.25 982.07 1100.42 979.626 1100.42 976.685C1100.42 973.607 1101.37 971.005 1103.27 968.878C1105.21 966.75 1107.86 965.053 1111.21 963.786C1114.56 962.519 1118.38 961.614 1122.68 961.07C1127.03 960.482 1131.58 960.188 1136.33 960.188C1140.58 960.188 1144.86 960.392 1149.16 960.799C1153.5 961.161 1157.71 961.681 1161.79 962.36C1165.86 962.994 1169.64 963.741 1173.12 964.601C1176.61 965.46 1179.6 966.366 1182.08 967.316L1175.77 978.382C1171.92 977.024 1167.67 975.893 1163.01 974.987C1158.39 974.037 1153.59 973.335 1148.62 972.883C1143.64 972.385 1138.7 972.136 1133.82 972.136C1126.26 972.136 1122.48 972.928 1122.48 974.512C1122.48 975.236 1123.36 975.757 1125.13 976.074C1126.89 976.39 1129.25 976.594 1132.19 976.685C1135.17 976.73 1138.46 976.798 1142.03 976.888C1145.56 976.979 1149.23 977.137 1153.03 977.363C1156.88 977.59 1160.56 977.997 1164.09 978.585C1167.67 979.174 1170.88 980.056 1173.73 981.233C1176.63 982.365 1178.92 983.881 1180.59 985.782C1182.27 987.682 1183.1 990.058 1183.1 992.91C1183.1 996.033 1182.06 998.68 1179.98 1000.85C1177.94 1003.03 1175.16 1004.79 1171.63 1006.15C1168.1 1007.46 1164.07 1008.41 1159.55 1009C1155.02 1009.59 1150.29 1009.88 1145.36 1009.88Z" fill="#BB5353"/>
<path d="M1010.86 1008.8V993.046H1042.43V977.024H1010.86V961.274H1095.04V977.024H1063.47V993.046H1095.04V1008.8H1010.86Z" fill="#BB5353"/>
<path d="M968.743 1009.88C963.221 1009.88 957.655 1009.52 952.042 1008.8C946.43 1008.12 941.067 1007.21 935.953 1006.08C930.839 1004.9 926.29 1003.64 922.308 1002.28L928.621 991.213C936.225 994.064 943.466 995.919 950.345 996.779C957.27 997.594 963.9 998.001 970.236 998.001C974.943 998.001 978.496 997.82 980.895 997.458C983.293 997.051 984.493 996.417 984.493 995.557C984.493 994.788 983.61 994.245 981.845 993.928C980.125 993.611 977.795 993.43 974.853 993.385C971.911 993.294 968.63 993.204 965.009 993.113C961.434 993.023 957.722 992.865 953.875 992.638C950.074 992.412 946.385 992.005 942.81 991.416C939.234 990.783 936.021 989.877 933.17 988.701C930.318 987.524 928.033 985.963 926.313 984.016C924.638 982.07 923.801 979.626 923.801 976.685C923.801 973.607 924.752 971.005 926.652 968.878C928.599 966.75 931.246 965.053 934.595 963.786C937.944 962.519 941.769 961.614 946.068 961.07C950.413 960.482 954.962 960.188 959.714 960.188C963.968 960.188 968.245 960.392 972.545 960.799C976.889 961.161 981.098 961.681 985.172 962.36C989.245 962.994 993.024 963.741 996.509 964.601C999.994 965.46 1002.98 966.366 1005.47 967.316L999.157 978.382C995.31 977.024 991.055 975.893 986.394 974.987C981.777 974.037 976.98 973.335 972.001 972.883C967.023 972.385 962.09 972.136 957.202 972.136C949.644 972.136 945.865 972.928 945.865 974.512C945.865 975.236 946.747 975.757 948.512 976.074C950.277 976.39 952.631 976.594 955.573 976.685C958.56 976.73 961.841 976.798 965.416 976.888C968.947 976.979 972.612 977.137 976.414 977.363C980.261 977.59 983.95 977.997 987.48 978.585C991.055 979.174 994.269 980.056 997.12 981.233C1000.02 982.365 1002.3 983.881 1003.98 985.782C1005.65 987.682 1006.49 990.058 1006.49 992.91C1006.49 996.033 1005.45 998.68 1003.37 1000.85C1001.33 1003.03 998.546 1004.79 995.015 1006.15C991.485 1007.46 987.457 1008.41 982.931 1009C978.406 1009.59 973.676 1009.88 968.743 1009.88Z" fill="#BB5353"/>
<path d="M834.246 1008.8V993.046H865.813V977.024H834.246V961.274H918.426V977.024H886.859V993.046H918.426V1008.8H834.246Z" fill="#BB5353"/>
<path d="M743.178 1008.8V961.274H774.61L785.268 981.844L795.927 961.274H827.359V1008.8H806.992V979.604L806.924 979.807L791.853 1008.8H778.683L763.612 979.807L763.544 979.604V1008.8H743.178Z" fill="#BB5353"/>
<path d="M1193.56 927.472V879.95H1214.61V911.722H1277.74V927.472H1193.56Z" fill="#BB5353"/>
<path d="M1102.8 927.472V879.95H1186.98V893.664H1123.85V897.873H1179.65V909.549H1123.85V913.758H1186.98V927.472H1102.8Z" fill="#BB5353"/>
<path d="M1045.27 927.472V895.7H1013.7V879.95H1097.88V895.7H1066.31V927.472H1045.27Z" fill="#BB5353"/>
<path d="M927.383 927.472V879.95H995.067C999.91 879.95 1003.62 881.036 1006.2 883.209C1008.78 885.336 1010.07 888.278 1010.07 892.034C1010.07 894.931 1009.19 897.284 1007.42 899.095C1005.66 900.905 1002.9 902.15 999.14 902.828V904.186C1003.26 904.548 1006.36 905.725 1008.44 907.716C1010.52 909.662 1011.56 912.197 1011.56 915.32V927.472H989.568V915.999C989.568 915.184 989.319 914.528 988.821 914.03C988.323 913.532 987.645 913.283 986.785 913.283H948.428V927.472H927.383ZM948.428 900.384H985.427C986.287 900.384 986.966 900.113 987.464 899.57C987.961 899.027 988.21 898.303 988.21 897.397C988.21 896.402 987.939 895.655 987.396 895.157C986.853 894.659 986.196 894.41 985.427 894.41H948.428V900.384Z" fill="#BB5353"/>
<path d="M839.703 927.472L869.37 879.95H894.285L923.884 927.472H901.277L897.204 920.072H866.587L862.31 927.472H839.703ZM875.616 904.322L873.308 908.395H890.755L888.514 904.322L882.88 892.781H881.522L875.616 904.322Z" fill="#BB5353"/>
<path d="M735.454 927.472V879.95H791.733C797.39 879.95 802.301 880.901 806.465 882.801C810.674 884.702 813.91 887.395 816.173 890.88C818.481 894.365 819.635 898.506 819.635 903.304V904.118C819.635 908.916 818.481 913.057 816.173 916.542C813.91 920.027 810.674 922.72 806.465 924.62C802.301 926.521 797.39 927.472 791.733 927.472H735.454ZM756.499 912.129H789.696C792.095 912.129 794.019 911.428 795.467 910.024C796.915 908.576 797.639 906.607 797.639 904.118V903.304C797.639 900.814 796.915 898.868 795.467 897.465C794.019 896.017 792.095 895.293 789.696 895.293H756.499V912.129Z" fill="#BB5353"/>
<path d="M689.263 928.558C684.465 928.558 679.509 928.286 674.395 927.743C669.281 927.245 664.28 926.521 659.392 925.571C654.549 924.62 650.069 923.534 645.95 922.312L651.856 908.531C658.374 910.296 664.665 911.586 670.729 912.401C676.839 913.215 682.836 913.623 688.72 913.623C691.118 913.623 693.426 913.577 695.644 913.487C697.907 913.396 699.944 913.215 701.754 912.944C703.564 912.672 704.99 912.287 706.031 911.79C707.117 911.246 707.66 910.545 707.66 909.685C707.66 908.825 707.117 908.101 706.031 907.513C704.945 906.924 703.474 906.449 701.618 906.087C699.763 905.725 697.635 905.476 695.237 905.34C692.883 905.159 690.417 905.069 687.837 905.069C684.397 905.069 680.958 905.182 677.518 905.408C674.078 905.634 670.933 905.996 668.082 906.494L666.317 899.638L690.077 894.071H650.499L651.178 879.95H725.039V891.559L703.315 897.058C708.611 896.967 713.25 897.533 717.232 898.755C721.26 899.977 724.383 901.697 726.601 903.915C728.864 906.132 729.995 908.689 729.995 911.586C729.995 913.939 729.249 916.044 727.755 917.899C726.307 919.71 724.27 921.294 721.645 922.652C719.065 924.009 716.056 925.118 712.616 925.978C709.176 926.838 705.465 927.472 701.482 927.879C697.5 928.332 693.426 928.558 689.263 928.558Z" fill="#BB5353"/>
<path d="M1140.41 1004.93C1134.89 1004.93 1129.32 1004.57 1123.71 1003.85C1118.09 1003.17 1112.73 1002.26 1107.62 1001.13C1102.5 999.953 1097.95 998.686 1093.97 997.328L1100.29 986.262C1107.89 989.114 1115.13 990.969 1122.01 991.829C1128.93 992.644 1135.56 993.051 1141.9 993.051C1146.61 993.051 1150.16 992.87 1152.56 992.508C1154.96 992.101 1156.16 991.467 1156.16 990.607C1156.16 989.838 1155.27 989.295 1153.51 988.978C1151.79 988.661 1149.46 988.48 1146.52 988.435C1143.58 988.344 1140.29 988.254 1136.67 988.163C1133.1 988.073 1129.39 987.914 1125.54 987.688C1121.74 987.462 1118.05 987.054 1114.47 986.466C1110.9 985.832 1107.69 984.927 1104.83 983.75C1101.98 982.574 1099.7 981.012 1097.98 979.066C1096.3 977.12 1095.47 974.676 1095.47 971.734C1095.47 968.657 1096.42 966.054 1098.32 963.927C1100.26 961.8 1102.91 960.103 1106.26 958.836C1109.61 957.568 1113.43 956.663 1117.73 956.12C1122.08 955.532 1126.63 955.238 1131.38 955.238C1135.63 955.238 1139.91 955.441 1144.21 955.849C1148.55 956.211 1152.76 956.731 1156.84 957.41C1160.91 958.044 1164.69 958.79 1168.17 959.65C1171.66 960.51 1174.65 961.415 1177.13 962.366L1170.82 973.431C1166.97 972.074 1162.72 970.942 1158.06 970.037C1153.44 969.087 1148.64 968.385 1143.67 967.933C1138.69 967.435 1133.75 967.186 1128.87 967.186C1121.31 967.186 1117.53 967.978 1117.53 969.562C1117.53 970.286 1118.41 970.806 1120.18 971.123C1121.94 971.44 1124.29 971.644 1127.24 971.734C1130.22 971.78 1133.51 971.847 1137.08 971.938C1140.61 972.028 1144.28 972.187 1148.08 972.413C1151.93 972.639 1155.61 973.047 1159.14 973.635C1162.72 974.224 1165.93 975.106 1168.78 976.283C1171.68 977.414 1173.97 978.93 1175.64 980.831C1177.32 982.732 1178.15 985.108 1178.15 987.959C1178.15 991.082 1177.11 993.73 1175.03 995.902C1172.99 998.075 1170.21 999.84 1166.68 1001.2C1163.15 1002.51 1159.12 1003.46 1154.6 1004.05C1150.07 1004.64 1145.34 1004.93 1140.41 1004.93Z" fill="white"/>
<path d="M1005.91 1003.85V988.095H1037.48V972.074H1005.91V956.324H1090.09V972.074H1058.52V988.095H1090.09V1003.85H1005.91Z" fill="white"/>
<path d="M963.793 1004.93C958.271 1004.93 952.704 1004.57 947.092 1003.85C941.48 1003.17 936.117 1002.26 931.003 1001.13C925.889 999.953 921.34 998.686 917.357 997.328L923.671 986.262C931.274 989.114 938.516 990.969 945.395 991.829C952.32 992.644 958.95 993.051 965.286 993.051C969.993 993.051 973.546 992.87 975.945 992.508C978.343 992.101 979.543 991.467 979.543 990.607C979.543 989.838 978.66 989.295 976.895 988.978C975.175 988.661 972.844 988.48 969.903 988.435C966.961 988.344 963.68 988.254 960.059 988.163C956.483 988.073 952.772 987.914 948.925 987.688C945.124 987.462 941.435 987.054 937.86 986.466C934.284 985.832 931.071 984.927 928.219 983.75C925.368 982.574 923.083 981.012 921.363 979.066C919.688 977.12 918.851 974.676 918.851 971.734C918.851 968.657 919.801 966.054 921.702 963.927C923.648 961.8 926.296 960.103 929.645 958.836C932.994 957.568 936.819 956.663 941.118 956.12C945.463 955.532 950.011 955.238 954.764 955.238C959.018 955.238 963.295 955.441 967.594 955.849C971.939 956.211 976.148 956.731 980.222 957.41C984.295 958.044 988.074 958.79 991.559 959.65C995.044 960.51 998.031 961.415 1000.52 962.366L994.206 973.431C990.359 972.074 986.105 970.942 981.444 970.037C976.827 969.087 972.03 968.385 967.051 967.933C962.073 967.435 957.14 967.186 952.252 967.186C944.694 967.186 940.914 967.978 940.914 969.562C940.914 970.286 941.797 970.806 943.562 971.123C945.327 971.44 947.681 971.644 950.622 971.734C953.61 971.78 956.891 971.847 960.466 971.938C963.996 972.028 967.662 972.187 971.464 972.413C975.311 972.639 979 973.047 982.53 973.635C986.105 974.224 989.318 975.106 992.17 976.283C995.066 977.414 997.352 978.93 999.026 980.831C1000.7 982.732 1001.54 985.108 1001.54 987.959C1001.54 991.082 1000.5 993.73 998.415 995.902C996.379 998.075 993.595 999.84 990.065 1001.2C986.535 1002.51 982.507 1003.46 977.981 1004.05C973.455 1004.64 968.726 1004.93 963.793 1004.93Z" fill="white"/>
<path d="M829.295 1003.85V988.095H860.863V972.074H829.295V956.324H913.476V972.074H881.908V988.095H913.476V1003.85H829.295Z" fill="white"/>
<path d="M738.228 1003.85V956.324H769.66L780.318 976.894L790.976 956.324H822.408V1003.85H802.042V974.654L801.974 974.857L786.903 1003.85H773.733L758.662 974.857L758.594 974.654V1003.85H738.228Z" fill="white"/>
<path d="M1188.61 922.521V875H1209.66V906.771H1272.79V922.521H1188.61Z" fill="white"/>
<path d="M1097.85 922.521V875H1182.03V888.713H1118.9V892.922H1174.7V904.599H1118.9V908.808H1182.03V922.521H1097.85Z" fill="white"/>
<path d="M1040.32 922.521V890.75H1008.75V875H1092.93V890.75H1061.36V922.521H1040.32Z" fill="white"/>
<path d="M922.433 922.521V875H990.117C994.959 875 998.671 876.086 1001.25 878.259C1003.83 880.386 1005.12 883.328 1005.12 887.084C1005.12 889.981 1004.24 892.334 1002.47 894.144C1000.71 895.955 997.946 897.199 994.19 897.878V899.236C998.309 899.598 1001.41 900.775 1003.49 902.766C1005.57 904.712 1006.61 907.247 1006.61 910.37V922.521H984.618V911.048C984.618 910.234 984.369 909.578 983.871 909.08C983.373 908.582 982.694 908.333 981.834 908.333H943.478V922.521H922.433ZM943.478 895.434H980.477C981.337 895.434 982.015 895.163 982.513 894.62C983.011 894.076 983.26 893.352 983.26 892.447C983.26 891.451 982.989 890.705 982.445 890.207C981.902 889.709 981.246 889.46 980.477 889.46H943.478V895.434Z" fill="white"/>
<path d="M834.753 922.521L864.42 875H889.335L918.934 922.521H896.327L892.254 915.122H861.636L857.36 922.521H834.753ZM870.666 899.372L868.357 903.445H885.805L883.564 899.372L877.93 887.831H876.572L870.666 899.372Z" fill="white"/>
<path d="M730.504 922.521V875H786.783C792.44 875 797.351 875.95 801.515 877.851C805.724 879.752 808.96 882.445 811.222 885.93C813.531 889.415 814.685 893.556 814.685 898.353V899.168C814.685 903.965 813.531 908.107 811.222 911.592C808.96 915.076 805.724 917.769 801.515 919.67C797.351 921.571 792.44 922.521 786.783 922.521H730.504ZM751.549 907.179H784.746C787.145 907.179 789.068 906.477 790.517 905.074C791.965 903.626 792.689 901.657 792.689 899.168V898.353C792.689 895.864 791.965 893.918 790.517 892.515C789.068 891.067 787.145 890.343 784.746 890.343H751.549V907.179Z" fill="white"/>
<path d="M684.312 923.608C679.515 923.608 674.559 923.336 669.445 922.793C664.331 922.295 659.33 921.571 654.442 920.621C649.599 919.67 645.119 918.584 641 917.362L646.906 903.581C653.423 905.346 659.714 906.636 665.779 907.45C671.889 908.265 677.886 908.672 683.769 908.672C686.168 908.672 688.476 908.627 690.694 908.537C692.957 908.446 694.993 908.265 696.804 907.993C698.614 907.722 700.04 907.337 701.081 906.839C702.167 906.296 702.71 905.595 702.71 904.735C702.71 903.875 702.167 903.151 701.081 902.562C699.994 901.974 698.524 901.499 696.668 901.137C694.812 900.775 692.685 900.526 690.287 900.39C687.933 900.209 685.466 900.118 682.887 900.118C679.447 900.118 676.007 900.232 672.568 900.458C669.128 900.684 665.983 901.046 663.131 901.544L661.366 894.687L685.127 889.121H645.548L646.227 875H720.089V886.609L698.365 892.108C703.66 892.017 708.299 892.583 712.282 893.805C716.31 895.027 719.433 896.747 721.651 898.964C723.914 901.182 725.045 903.739 725.045 906.636C725.045 908.989 724.298 911.094 722.805 912.949C721.357 914.76 719.32 916.344 716.695 917.701C714.115 919.059 711.105 920.168 707.666 921.028C704.226 921.888 700.515 922.521 696.532 922.929C692.549 923.381 688.476 923.608 684.312 923.608Z" fill="white"/>
</svg>
