<svg width="1920" height="1080" viewBox="0 0 1920 1080" fill="none" xmlns="http://www.w3.org/2000/svg">
<path d="M1649.78 636V496H1815.58C1832.25 496 1846.72 498.8 1858.98 504.4C1871.38 510 1880.92 517.933 1887.58 528.2C1894.38 538.467 1897.78 550.667 1897.78 564.8V567.2C1897.78 581.333 1894.38 593.533 1887.58 603.8C1880.92 614.067 1871.38 622 1858.98 627.6C1846.72 633.2 1832.25 636 1815.58 636H1649.78ZM1711.78 590.8H1809.58C1816.65 590.8 1822.32 588.733 1826.58 584.6C1830.85 580.333 1832.98 574.533 1832.98 567.2V564.8C1832.98 557.467 1830.85 551.733 1826.58 547.6C1822.32 543.333 1816.65 541.2 1809.58 541.2H1711.78V590.8Z" fill="#BB5353"/>
<path d="M1382.4 636V496H1630.4V536.4H1444.4V548.8H1608.8V583.2H1444.4V595.6H1630.4V636H1382.4Z" fill="#BB5353"/>
<path d="M1111.11 636V496H1172.31L1297.11 573.2V496H1359.11V636H1297.91L1173.11 558.8V636H1111.11Z" fill="#BB5353"/>
<path d="M842.875 636V589.6H935.875V542.4H842.875V496H1090.88V542.4H997.875V589.6H1090.88V636H842.875Z" fill="#BB5353"/>
<path d="M582.399 636V496H830.399V542.4H644.399V558.8H808.799V601.2H644.399V636H582.399Z" fill="#BB5353"/>
<path d="M315.016 636V496H563.016V536.4H377.016V548.8H541.416V583.2H377.016V595.6H563.016V636H315.016Z" fill="#BB5353"/>
<path d="M49.0005 636V496H248.4C262.667 496 273.6 499.2 281.201 505.6C288.8 511.867 292.6 520.533 292.6 531.6C292.6 540.133 290 547.067 284.801 552.4C279.6 557.733 271.467 561.4 260.4 563.4V567.4C272.534 568.467 281.667 571.933 287.801 577.8C293.934 583.533 297 591 297 600.2V636H232.2V602.2C232.2 599.8 231.467 597.867 230 596.4C228.534 594.933 226.534 594.2 224 594.2H111V636H49.0005ZM111 556.2H220C222.534 556.2 224.534 555.4 226 553.8C227.467 552.2 228.201 550.067 228.201 547.4C228.201 544.467 227.4 542.267 225.8 540.8C224.201 539.333 222.267 538.6 220 538.6H111V556.2Z" fill="#BB5353"/>
<path d="M1644.78 491H1815.58V496H1649.78V636H1815.58L1817.14 635.992C1833.15 635.823 1847.1 633.025 1858.98 627.6C1870.99 622.175 1880.32 614.56 1886.95 604.756L1887.58 603.8C1894.17 593.854 1897.57 582.094 1897.77 568.52L1897.78 567.2V564.8C1897.78 550.667 1894.38 538.467 1887.58 528.2C1880.92 517.934 1871.38 510 1858.98 504.4C1847.1 498.975 1833.15 496.177 1817.14 496.008L1815.58 496V491C1832.79 491 1847.99 493.89 1861.04 499.843C1874.21 505.791 1884.53 514.319 1891.78 525.477H1891.77C1899.18 536.67 1902.78 549.85 1902.78 564.8V567.2L1902.77 568.598C1902.55 582.972 1898.95 595.679 1891.77 606.522C1884.53 617.68 1874.21 626.208 1861.04 632.156C1847.99 638.11 1832.79 641 1815.58 641H1644.78V491ZM1827.98 564.8C1827.98 558.68 1826.29 554.442 1823.39 551.475L1823.1 551.191L1823.07 551.164L1823.05 551.136C1819.98 548.066 1815.84 546.312 1810.14 546.205L1809.58 546.2H1716.78V585.8H1809.58V590.8H1711.78V541.2H1809.58C1816.65 541.2 1822.32 543.333 1826.58 547.6C1830.85 551.733 1832.98 557.467 1832.98 564.8V567.2L1832.98 567.883C1832.85 574.894 1830.72 580.466 1826.58 584.6C1822.32 588.733 1816.65 590.8 1809.58 590.8V585.8C1815.59 585.8 1819.91 584.081 1823.07 581.037C1826.19 577.905 1827.98 573.494 1827.98 567.2V564.8Z" fill="white"/>
<path d="M1382.4 496V636H1630.4V595.6H1444.4V583.2H1608.8V548.8H1444.4V536.4H1630.4V496H1382.4ZM1635.4 541.4H1449.4V543.8H1613.8V588.2H1449.4V590.6H1635.4V641H1377.4V491H1635.4V541.4Z" fill="white"/>
<path d="M1297.11 496V573.2L1172.31 496H1111.11V636H1173.11V558.8L1297.91 636H1359.11V496H1297.11ZM1364.11 641H1296.49L1178.11 567.771V641H1106.11V491H1173.73L1292.11 564.228V491H1364.11V641Z" fill="white"/>
<path d="M842.875 496V542.4H935.875V589.6H842.875V636H1090.88V589.6H997.875V542.4H1090.88V496H842.875ZM1095.88 547.4H1002.88V584.6H1095.88V641H837.875V584.6H930.875V547.4H837.875V491H1095.88V547.4Z" fill="white"/>
<path d="M582.398 496V636H644.398V601.2H808.799V558.8H644.398V542.4H830.398V496H582.398ZM835.398 547.4H649.398V553.8H813.799V606.2H649.398V641H577.398V491H835.398V547.4Z" fill="white"/>
<path d="M315.016 496V636H563.016V595.6H377.016V583.2H541.416V548.8H377.016V536.4H563.016V496H315.016ZM568.016 541.4H382.016V543.8H546.416V588.2H382.016V590.6H568.016V641H310.016V491H568.016V541.4Z" fill="white"/>
<path d="M297 600.2C297 591 293.934 583.533 287.801 577.8C281.667 571.933 272.534 568.467 260.4 567.4V563.4C271.121 561.463 279.09 557.961 284.305 552.896L284.801 552.4C289.838 547.234 292.435 540.565 292.593 532.396L292.601 531.6C292.6 520.533 288.8 511.866 281.2 505.6C273.838 499.4 263.347 496.204 249.729 496.01L248.4 496V491C263.342 491 275.597 494.345 284.421 501.775H284.42C293.297 509.114 297.6 519.266 297.601 531.6L297.592 532.499C297.411 541.746 294.43 549.686 288.381 555.891C284.686 559.68 279.905 562.616 274.196 564.815C280.987 566.787 286.734 569.86 291.257 574.187H291.256C298.476 580.956 302 589.783 302 600.2V641H227.2V602.2C227.2 601.063 226.928 600.474 226.605 600.089L226.465 599.936C226.156 599.627 225.596 599.251 224.274 599.205L224 599.2H116V641H44V491H248.4V496H49V636H111V594.2H224C226.533 594.2 228.533 594.934 230 596.4C231.467 597.867 232.2 599.8 232.2 602.2V636H297V600.2ZM223.2 547.4C223.2 545.611 222.789 544.891 222.524 544.591L222.422 544.485C221.788 543.904 221.077 543.6 220 543.6H116V551.2H220V556.2H111V538.6H220C222.267 538.6 224.201 539.333 225.801 540.8C227.401 542.266 228.2 544.467 228.2 547.4L228.191 547.894C228.105 550.331 227.375 552.3 226 553.8C224.533 555.4 222.533 556.2 220 556.2V551.2C221.388 551.2 221.955 550.813 222.314 550.421C222.753 549.943 223.2 549.115 223.2 547.4Z" fill="white"/>
<path d="M1639.78 626V486H1805.58C1822.25 486 1836.72 488.8 1848.98 494.4C1861.38 500 1870.92 507.933 1877.58 518.2C1884.38 528.467 1887.78 540.667 1887.78 554.8V557.2C1887.78 571.333 1884.38 583.533 1877.58 593.8C1870.92 604.067 1861.38 612 1848.98 617.6C1836.72 623.2 1822.25 626 1805.58 626H1639.78ZM1701.78 580.8H1799.58C1806.65 580.8 1812.32 578.733 1816.58 574.6C1820.85 570.333 1822.98 564.533 1822.98 557.2V554.8C1822.98 547.467 1820.85 541.733 1816.58 537.6C1812.32 533.333 1806.65 531.2 1799.58 531.2H1701.78V580.8Z" fill="#BB5353"/>
<path d="M1372.4 626V486H1620.4V526.4H1434.4V538.8H1598.8V573.2H1434.4V585.6H1620.4V626H1372.4Z" fill="#BB5353"/>
<path d="M1101.11 626V486H1162.31L1287.11 563.2V486H1349.11V626H1287.91L1163.11 548.8V626H1101.11Z" fill="#BB5353"/>
<path d="M832.875 626V579.6H925.875V532.4H832.875V486H1080.88V532.4H987.875V579.6H1080.88V626H832.875Z" fill="#BB5353"/>
<path d="M572.399 626V486H820.399V532.4H634.399V548.8H798.799V591.2H634.399V626H572.399Z" fill="#BB5353"/>
<path d="M305.016 626V486H553.016V526.4H367.016V538.8H531.416V573.2H367.016V585.6H553.016V626H305.016Z" fill="#BB5353"/>
<path d="M39.0005 626V486H238.4C252.667 486 263.6 489.2 271.201 495.6C278.8 501.867 282.6 510.533 282.6 521.6C282.6 530.133 280 537.067 274.801 542.4C269.6 547.733 261.467 551.4 250.4 553.4V557.4C262.534 558.467 271.667 561.933 277.801 567.8C283.934 573.533 287 581 287 590.2V626H222.2V592.2C222.2 589.8 221.467 587.867 220 586.4C218.534 584.933 216.534 584.2 214 584.2H101V626H39.0005ZM101 546.2H210C212.534 546.2 214.534 545.4 216 543.8C217.467 542.2 218.201 540.067 218.201 537.4C218.201 534.467 217.4 532.267 215.8 530.8C214.201 529.333 212.267 528.6 210 528.6H101V546.2Z" fill="#BB5353"/>
<path d="M1634.78 481H1805.58V486H1639.78V626H1805.58L1807.14 625.992C1823.15 625.823 1837.1 623.025 1848.98 617.6C1860.99 612.175 1870.32 604.56 1876.95 594.756L1877.58 593.8C1884.17 583.854 1887.57 572.094 1887.77 558.52L1887.78 557.2V554.8C1887.78 540.667 1884.38 528.467 1877.58 518.2C1870.92 507.934 1861.38 500 1848.98 494.4C1837.1 488.975 1823.15 486.177 1807.14 486.008L1805.58 486V481C1822.79 481 1837.99 483.89 1851.04 489.843C1864.21 495.791 1874.53 504.319 1881.78 515.477H1881.77C1889.18 526.67 1892.78 539.85 1892.78 554.8V557.2L1892.77 558.598C1892.55 572.972 1888.95 585.679 1881.77 596.522C1874.53 607.68 1864.21 616.208 1851.04 622.156C1837.99 628.11 1822.79 631 1805.58 631H1634.78V481ZM1817.98 554.8C1817.98 548.68 1816.29 544.442 1813.39 541.475L1813.1 541.191L1813.07 541.164L1813.05 541.136C1809.98 538.066 1805.84 536.312 1800.14 536.205L1799.58 536.2H1706.78V575.8H1799.58V580.8H1701.78V531.2H1799.58C1806.65 531.2 1812.32 533.333 1816.58 537.6C1820.85 541.733 1822.98 547.467 1822.98 554.8V557.2L1822.98 557.883C1822.85 564.894 1820.72 570.466 1816.58 574.6C1812.32 578.733 1806.65 580.8 1799.58 580.8V575.8C1805.59 575.8 1809.91 574.081 1813.07 571.037C1816.19 567.905 1817.98 563.494 1817.98 557.2V554.8Z" fill="#BB5353"/>
<path d="M1372.4 486V626H1620.4V585.6H1434.4V573.2H1598.8V538.8H1434.4V526.4H1620.4V486H1372.4ZM1625.4 531.4H1439.4V533.8H1603.8V578.2H1439.4V580.6H1625.4V631H1367.4V481H1625.4V531.4Z" fill="#BB5353"/>
<path d="M1287.11 486V563.2L1162.31 486H1101.11V626H1163.11V548.8L1287.91 626H1349.11V486H1287.11ZM1354.11 631H1286.49L1168.11 557.771V631H1096.11V481H1163.73L1282.11 554.228V481H1354.11V631Z" fill="#BB5353"/>
<path d="M832.875 486V532.4H925.875V579.6H832.875V626H1080.88V579.6H987.875V532.4H1080.88V486H832.875ZM1085.88 537.4H992.875V574.6H1085.88V631H827.875V574.6H920.875V537.4H827.875V481H1085.88V537.4Z" fill="#BB5353"/>
<path d="M572.398 486V626H634.398V591.2H798.799V548.8H634.398V532.4H820.398V486H572.398ZM825.398 537.4H639.398V543.8H803.799V596.2H639.398V631H567.398V481H825.398V537.4Z" fill="#BB5353"/>
<path d="M305.016 486V626H553.016V585.6H367.016V573.2H531.416V538.8H367.016V526.4H553.016V486H305.016ZM558.016 531.4H372.016V533.8H536.416V578.2H372.016V580.6H558.016V631H300.016V481H558.016V531.4Z" fill="#BB5353"/>
<path d="M287 590.2C287 581 283.934 573.533 277.801 567.8C271.667 561.933 262.534 558.467 250.4 557.4V553.4C261.121 551.463 269.09 547.961 274.305 542.896L274.801 542.4C279.838 537.234 282.435 530.565 282.593 522.396L282.601 521.6C282.6 510.533 278.8 501.866 271.2 495.6C263.838 489.4 253.347 486.204 239.729 486.01L238.4 486V481C253.342 481 265.597 484.345 274.421 491.775H274.42C283.297 499.114 287.6 509.266 287.601 521.6L287.592 522.499C287.411 531.746 284.43 539.686 278.381 545.891C274.686 549.68 269.905 552.616 264.196 554.815C270.987 556.787 276.734 559.86 281.257 564.187H281.256C288.476 570.956 292 579.783 292 590.2V631H217.2V592.2C217.2 591.063 216.928 590.474 216.605 590.089L216.465 589.936C216.156 589.627 215.596 589.251 214.274 589.205L214 589.2H106V631H34V481H238.4V486H39V626H101V584.2H214C216.533 584.2 218.533 584.934 220 586.4C221.467 587.867 222.2 589.8 222.2 592.2V626H287V590.2ZM213.2 537.4C213.2 535.611 212.789 534.891 212.524 534.591L212.422 534.485C211.788 533.904 211.077 533.6 210 533.6H106V541.2H210V546.2H101V528.6H210C212.267 528.6 214.201 529.333 215.801 530.8C217.401 532.266 218.2 534.467 218.2 537.4L218.191 537.894C218.105 540.331 217.375 542.3 216 543.8C214.533 545.4 212.533 546.2 210 546.2V541.2C211.388 541.2 211.955 540.813 212.314 540.421C212.753 539.943 213.2 539.115 213.2 537.4Z" fill="#BB5353"/>
<path d="M1632.78 616V476H1798.58C1815.25 476 1829.72 478.8 1841.98 484.4C1854.38 490 1863.92 497.933 1870.58 508.2C1877.38 518.467 1880.78 530.667 1880.78 544.8V547.2C1880.78 561.333 1877.38 573.533 1870.58 583.8C1863.92 594.067 1854.38 602 1841.98 607.6C1829.72 613.2 1815.25 616 1798.58 616H1632.78ZM1694.78 570.8H1792.58C1799.65 570.8 1805.32 568.733 1809.58 564.6C1813.85 560.333 1815.98 554.533 1815.98 547.2V544.8C1815.98 537.467 1813.85 531.733 1809.58 527.6C1805.32 523.333 1799.65 521.2 1792.58 521.2H1694.78V570.8Z" fill="#843D3D"/>
<path d="M1365.4 616V476H1613.4V516.4H1427.4V528.8H1591.8V563.2H1427.4V575.6H1613.4V616H1365.4Z" fill="#843D3D"/>
<path d="M1094.11 616V476H1155.31L1280.11 553.2V476H1342.11V616H1280.91L1156.11 538.8V616H1094.11Z" fill="#843D3D"/>
<path d="M825.875 616V569.6H918.875V522.4H825.875V476H1073.88V522.4H980.875V569.6H1073.88V616H825.875Z" fill="#843D3D"/>
<path d="M565.399 616V476H813.399V522.4H627.399V538.8H791.799V581.2H627.399V616H565.399Z" fill="#843D3D"/>
<path d="M298.016 616V476H546.016V516.4H360.016V528.8H524.416V563.2H360.016V575.6H546.016V616H298.016Z" fill="#843D3D"/>
<path d="M32.0005 616V476H231.4C245.667 476 256.6 479.2 264.201 485.6C271.8 491.867 275.6 500.533 275.6 511.6C275.6 520.133 273 527.067 267.801 532.4C262.6 537.733 254.467 541.4 243.4 543.4V547.4C255.534 548.467 264.667 551.933 270.801 557.8C276.934 563.533 280 571 280 580.2V616H215.2V582.2C215.2 579.8 214.467 577.867 213 576.4C211.534 574.933 209.534 574.2 207 574.2H94.0005V616H32.0005ZM94.0005 536.2H203C205.534 536.2 207.534 535.4 209 533.8C210.467 532.2 211.201 530.067 211.201 527.4C211.201 524.467 210.4 522.267 208.8 520.8C207.201 519.333 205.267 518.6 203 518.6H94.0005V536.2Z" fill="#843D3D"/>
<path d="M1627.78 471H1798.58V476H1632.78V616H1798.58L1800.14 615.992C1816.15 615.823 1830.1 613.025 1841.98 607.6C1853.99 602.175 1863.32 594.56 1869.95 584.756L1870.58 583.8C1877.17 573.854 1880.57 562.094 1880.77 548.52L1880.78 547.2V544.8C1880.78 530.667 1877.38 518.467 1870.58 508.2C1863.92 497.934 1854.38 490 1841.98 484.4C1830.1 478.975 1816.15 476.177 1800.14 476.008L1798.58 476V471C1815.79 471 1830.99 473.89 1844.04 479.843C1857.21 485.791 1867.53 494.319 1874.78 505.477H1874.77C1882.18 516.67 1885.78 529.85 1885.78 544.8V547.2L1885.77 548.598C1885.55 562.972 1881.95 575.679 1874.77 586.522C1867.53 597.68 1857.21 606.208 1844.04 612.156C1830.99 618.11 1815.79 621 1798.58 621H1627.78V471ZM1810.98 544.8C1810.98 538.68 1809.29 534.442 1806.39 531.475L1806.1 531.191L1806.07 531.164L1806.05 531.136C1802.98 528.066 1798.84 526.312 1793.14 526.205L1792.58 526.2H1699.78V565.8H1792.58V570.8H1694.78V521.2H1792.58C1799.65 521.2 1805.32 523.333 1809.58 527.6C1813.85 531.733 1815.98 537.467 1815.98 544.8V547.2L1815.98 547.883C1815.85 554.894 1813.72 560.466 1809.58 564.6C1805.32 568.733 1799.65 570.8 1792.58 570.8V565.8C1798.59 565.8 1802.91 564.081 1806.07 561.037C1809.19 557.905 1810.98 553.494 1810.98 547.2V544.8Z" fill="#843D3D"/>
<path d="M1365.4 476V616H1613.4V575.6H1427.4V563.2H1591.8V528.8H1427.4V516.4H1613.4V476H1365.4ZM1618.4 521.4H1432.4V523.8H1596.8V568.2H1432.4V570.6H1618.4V621H1360.4V471H1618.4V521.4Z" fill="#843D3D"/>
<path d="M1280.11 476V553.2L1155.31 476H1094.11V616H1156.11V538.8L1280.91 616H1342.11V476H1280.11ZM1347.11 621H1279.49L1161.11 547.771V621H1089.11V471H1156.73L1275.11 544.228V471H1347.11V621Z" fill="#843D3D"/>
<path d="M825.875 476V522.4H918.875V569.6H825.875V616H1073.88V569.6H980.875V522.4H1073.88V476H825.875ZM1078.88 527.4H985.875V564.6H1078.88V621H820.875V564.6H913.875V527.4H820.875V471H1078.88V527.4Z" fill="#843D3D"/>
<path d="M565.398 476V616H627.398V581.2H791.799V538.8H627.398V522.4H813.398V476H565.398ZM818.398 527.4H632.398V533.8H796.799V586.2H632.398V621H560.398V471H818.398V527.4Z" fill="#843D3D"/>
<path d="M298.016 476V616H546.016V575.6H360.016V563.2H524.416V528.8H360.016V516.4H546.016V476H298.016ZM551.016 521.4H365.016V523.8H529.416V568.2H365.016V570.6H551.016V621H293.016V471H551.016V521.4Z" fill="#843D3D"/>
<path d="M280 580.2C280 571 276.934 563.533 270.801 557.8C264.667 551.933 255.534 548.467 243.4 547.4V543.4C254.121 541.463 262.09 537.961 267.305 532.896L267.801 532.4C272.838 527.234 275.435 520.565 275.593 512.396L275.601 511.6C275.6 500.533 271.8 491.866 264.2 485.6C256.838 479.4 246.347 476.204 232.729 476.01L231.4 476V471C246.342 471 258.597 474.345 267.421 481.775H267.42C276.297 489.114 280.6 499.266 280.601 511.6L280.592 512.499C280.411 521.746 277.43 529.686 271.381 535.891C267.686 539.68 262.905 542.616 257.196 544.815C263.987 546.787 269.734 549.86 274.257 554.187H274.256C281.476 560.956 285 569.783 285 580.2V621H210.2V582.2C210.2 581.063 209.928 580.474 209.605 580.089L209.465 579.936C209.156 579.627 208.596 579.251 207.274 579.205L207 579.2H99V621H27V471H231.4V476H32V616H94V574.2H207C209.533 574.2 211.533 574.934 213 576.4C214.467 577.867 215.2 579.8 215.2 582.2V616H280V580.2ZM206.2 527.4C206.2 525.611 205.789 524.891 205.524 524.591L205.422 524.485C204.788 523.904 204.077 523.6 203 523.6H99V531.2H203V536.2H94V518.6H203C205.267 518.6 207.201 519.333 208.801 520.8C210.401 522.266 211.2 524.467 211.2 527.4L211.191 527.894C211.105 530.331 210.375 532.3 209 533.8C207.533 535.4 205.533 536.2 203 536.2V531.2C204.388 531.2 204.955 530.813 205.314 530.421C205.753 529.943 206.2 529.115 206.2 527.4Z" fill="#843D3D"/>
<path d="M1622.78 605V465H1788.58C1805.25 465 1819.72 467.8 1831.98 473.4C1844.38 479 1853.92 486.933 1860.58 497.2C1867.38 507.467 1870.78 519.667 1870.78 533.8V536.2C1870.78 550.333 1867.38 562.533 1860.58 572.8C1853.92 583.067 1844.38 591 1831.98 596.6C1819.72 602.2 1805.25 605 1788.58 605H1622.78ZM1684.78 559.8H1782.58C1789.65 559.8 1795.32 557.733 1799.58 553.6C1803.85 549.333 1805.98 543.533 1805.98 536.2V533.8C1805.98 526.467 1803.85 520.733 1799.58 516.6C1795.32 512.333 1789.65 510.2 1782.58 510.2H1684.78V559.8Z" fill="white"/>
<path d="M1355.4 605V465H1603.4V505.4H1417.4V517.8H1581.8V552.2H1417.4V564.6H1603.4V605H1355.4Z" fill="white"/>
<path d="M1084.11 605V465H1145.31L1270.11 542.2V465H1332.11V605H1270.91L1146.11 527.8V605H1084.11Z" fill="white"/>
<path d="M815.875 605V558.6H908.875V511.4H815.875V465H1063.88V511.4H970.875V558.6H1063.88V605H815.875Z" fill="white"/>
<path d="M555.399 605V465H803.399V511.4H617.399V527.8H781.799V570.2H617.399V605H555.399Z" fill="white"/>
<path d="M288.016 605V465H536.016V505.4H350.016V517.8H514.416V552.2H350.016V564.6H536.016V605H288.016Z" fill="white"/>
<path d="M22.0005 605V465H221.4C235.667 465 246.6 468.2 254.201 474.6C261.8 480.867 265.6 489.533 265.6 500.6C265.6 509.133 263 516.067 257.801 521.4C252.6 526.733 244.467 530.4 233.4 532.4V536.4C245.534 537.467 254.667 540.933 260.801 546.8C266.934 552.533 270 560 270 569.2V605H205.2V571.2C205.2 568.8 204.467 566.867 203 565.4C201.534 563.933 199.534 563.2 197 563.2H84.0005V605H22.0005ZM84.0005 525.2H193C195.534 525.2 197.534 524.4 199 522.8C200.467 521.2 201.201 519.067 201.201 516.4C201.201 513.467 200.4 511.267 198.8 509.8C197.201 508.333 195.267 507.6 193 507.6H84.0005V525.2Z" fill="white"/>
<path d="M1617.78 460H1788.58V465H1622.78V605H1788.58L1790.14 604.992C1806.15 604.823 1820.1 602.025 1831.98 596.6C1843.99 591.175 1853.32 583.56 1859.95 573.756L1860.58 572.8C1867.17 562.854 1870.57 551.094 1870.77 537.52L1870.78 536.2V533.8C1870.78 519.667 1867.38 507.467 1860.58 497.2C1853.92 486.934 1844.38 479 1831.98 473.4C1820.1 467.975 1806.15 465.177 1790.14 465.008L1788.58 465V460C1805.79 460 1820.99 462.89 1834.04 468.843C1847.21 474.791 1857.53 483.319 1864.78 494.477H1864.77C1872.18 505.67 1875.78 518.85 1875.78 533.8V536.2L1875.77 537.598C1875.55 551.972 1871.95 564.679 1864.77 575.522C1857.53 586.68 1847.21 595.208 1834.04 601.156C1820.99 607.11 1805.79 610 1788.58 610H1617.78V460ZM1800.98 533.8C1800.98 527.68 1799.29 523.442 1796.39 520.475L1796.1 520.191L1796.07 520.164L1796.05 520.136C1792.98 517.066 1788.84 515.312 1783.14 515.205L1782.58 515.2H1689.78V554.8H1782.58V559.8H1684.78V510.2H1782.58C1789.65 510.2 1795.32 512.333 1799.58 516.6C1803.85 520.733 1805.98 526.467 1805.98 533.8V536.2L1805.98 536.883C1805.85 543.894 1803.72 549.466 1799.58 553.6C1795.32 557.733 1789.65 559.8 1782.58 559.8V554.8C1788.59 554.8 1792.91 553.081 1796.07 550.037C1799.19 546.905 1800.98 542.494 1800.98 536.2V533.8Z" fill="#BB5353"/>
<path d="M1355.4 465V605H1603.4V564.6H1417.4V552.2H1581.8V517.8H1417.4V505.4H1603.4V465H1355.4ZM1608.4 510.4H1422.4V512.8H1586.8V557.2H1422.4V559.6H1608.4V610H1350.4V460H1608.4V510.4Z" fill="#BB5353"/>
<path d="M1270.11 465V542.2L1145.31 465H1084.11V605H1146.11V527.8L1270.91 605H1332.11V465H1270.11ZM1337.11 610H1269.49L1151.11 536.771V610H1079.11V460H1146.73L1265.11 533.228V460H1337.11V610Z" fill="#BB5353"/>
<path d="M815.875 465V511.4H908.875V558.6H815.875V605H1063.88V558.6H970.875V511.4H1063.88V465H815.875ZM1068.88 516.4H975.875V553.6H1068.88V610H810.875V553.6H903.875V516.4H810.875V460H1068.88V516.4Z" fill="#BB5353"/>
<path d="M555.398 465V605H617.398V570.2H781.799V527.8H617.398V511.4H803.398V465H555.398ZM808.398 516.4H622.398V522.8H786.799V575.2H622.398V610H550.398V460H808.398V516.4Z" fill="#BB5353"/>
<path d="M288.016 465V605H536.016V564.6H350.016V552.2H514.416V517.8H350.016V505.4H536.016V465H288.016ZM541.016 510.4H355.016V512.8H519.416V557.2H355.016V559.6H541.016V610H283.016V460H541.016V510.4Z" fill="#BB5353"/>
<path d="M270 569.2C270 560 266.934 552.533 260.801 546.8C254.667 540.933 245.534 537.467 233.4 536.4V532.4C244.121 530.463 252.09 526.961 257.305 521.896L257.801 521.4C262.838 516.234 265.435 509.565 265.593 501.396L265.601 500.6C265.6 489.533 261.8 480.866 254.2 474.6C246.838 468.4 236.347 465.204 222.729 465.01L221.4 465V460C236.342 460 248.597 463.345 257.421 470.775H257.42C266.297 478.114 270.6 488.266 270.601 500.6L270.592 501.499C270.411 510.746 267.43 518.686 261.381 524.891C257.686 528.68 252.905 531.616 247.196 533.815C253.987 535.787 259.734 538.86 264.257 543.187H264.256C271.476 549.956 275 558.783 275 569.2V610H200.2V571.2C200.2 570.063 199.928 569.474 199.605 569.089L199.465 568.936C199.156 568.627 198.596 568.251 197.274 568.205L197 568.2H89V610H17V460H221.4V465H22V605H84V563.2H197C199.533 563.2 201.533 563.934 203 565.4C204.467 566.867 205.2 568.8 205.2 571.2V605H270V569.2ZM196.2 516.4C196.2 514.611 195.789 513.891 195.524 513.591L195.422 513.485C194.788 512.904 194.077 512.6 193 512.6H89V520.2H193V525.2H84V507.6H193C195.267 507.6 197.201 508.333 198.801 509.8C200.401 511.266 201.2 513.467 201.2 516.4L201.191 516.894C201.105 519.331 200.375 521.3 199 522.8C197.533 524.4 195.533 525.2 193 525.2V520.2C194.388 520.2 194.955 519.813 195.314 519.421C195.753 518.943 196.2 518.115 196.2 516.4Z" fill="#BB5353"/>
<path d="M1552.79 165.096V142.056H1582.55V165.096H1552.79ZM1552.79 197.736V174.696H1582.55V197.736H1552.79Z" fill="#BB5353"/>
<path d="M1491.89 199.272C1484.08 199.272 1476.21 198.76 1468.28 197.736C1460.34 196.776 1452.76 195.496 1445.52 193.896C1438.29 192.232 1431.86 190.44 1426.23 188.52L1435.16 172.872C1445.91 176.904 1456.15 179.528 1465.88 180.744C1475.67 181.896 1485.04 182.472 1494 182.472C1500.66 182.472 1505.68 182.216 1509.08 181.704C1512.47 181.128 1514.16 180.232 1514.16 179.016C1514.16 177.928 1512.92 177.16 1510.42 176.712C1507.99 176.264 1504.69 176.008 1500.53 175.944C1496.37 175.816 1491.73 175.688 1486.61 175.56C1481.56 175.432 1476.31 175.208 1470.87 174.888C1465.49 174.568 1460.28 173.992 1455.22 173.16C1450.16 172.264 1445.62 170.984 1441.59 169.32C1437.56 167.656 1434.32 165.448 1431.89 162.696C1429.52 159.944 1428.34 156.488 1428.34 152.328C1428.34 147.976 1429.68 144.296 1432.37 141.288C1435.12 138.28 1438.87 135.88 1443.6 134.088C1448.34 132.296 1453.75 131.016 1459.83 130.248C1465.97 129.416 1472.4 129 1479.12 129C1485.14 129 1491.19 129.288 1497.27 129.864C1503.41 130.376 1509.36 131.112 1515.12 132.072C1520.88 132.968 1526.23 134.024 1531.16 135.24C1536.08 136.456 1540.31 137.736 1543.83 139.08L1534.9 154.728C1529.46 152.808 1523.44 151.208 1516.85 149.928C1510.32 148.584 1503.54 147.592 1496.5 146.952C1489.46 146.248 1482.48 145.896 1475.57 145.896C1464.88 145.896 1459.54 147.016 1459.54 149.256C1459.54 150.28 1460.79 151.016 1463.28 151.464C1465.78 151.912 1469.11 152.2 1473.27 152.328C1477.49 152.392 1482.13 152.488 1487.19 152.616C1492.18 152.744 1497.36 152.968 1502.74 153.288C1508.18 153.608 1513.4 154.184 1518.39 155.016C1523.44 155.848 1527.99 157.096 1532.02 158.76C1536.12 160.36 1539.35 162.504 1541.72 165.192C1544.08 167.88 1545.27 171.24 1545.27 175.272C1545.27 179.688 1543.8 183.432 1540.85 186.504C1537.97 189.576 1534.04 192.072 1529.04 193.992C1524.05 195.848 1518.36 197.192 1511.96 198.024C1505.56 198.856 1498.87 199.272 1491.89 199.272Z" fill="#BB5353"/>
<path d="M1361.51 199.272C1321.83 199.272 1301.99 186.504 1301.99 160.968V130.536H1331.75V160.008C1331.75 171.464 1341.67 177.192 1361.51 177.192C1381.35 177.192 1391.27 171.464 1391.27 160.008V130.536H1421.03V160.968C1421.03 186.504 1401.19 199.272 1361.51 199.272Z" fill="#BB5353"/>
<path d="M1221.87 197.736V152.808H1177.23V130.536H1296.27V152.808H1251.63V197.736H1221.87Z" fill="#BB5353"/>
<path d="M1077.62 197.736L1119.57 130.536H1154.8L1196.66 197.736H1164.69L1158.93 187.272H1115.64L1109.59 197.736H1077.62ZM1128.4 165L1125.14 170.76H1149.81L1146.64 165L1138.68 148.68H1136.76L1128.4 165Z" fill="#BB5353"/>
<path d="M1022.65 197.736V152.808H978.011V130.536H1097.05V152.808H1052.41V197.736H1022.65Z" fill="#BB5353"/>
<path d="M922.548 199.272C914.74 199.272 906.868 198.76 898.932 197.736C890.996 196.776 883.412 195.496 876.18 193.896C868.948 192.232 862.516 190.44 856.884 188.52L865.812 172.872C876.564 176.904 886.804 179.528 896.532 180.744C906.324 181.896 915.7 182.472 924.66 182.472C931.316 182.472 936.34 182.216 939.732 181.704C943.124 181.128 944.82 180.232 944.82 179.016C944.82 177.928 943.572 177.16 941.076 176.712C938.644 176.264 935.348 176.008 931.188 175.944C927.028 175.816 922.388 175.688 917.268 175.56C912.212 175.432 906.964 175.208 901.524 174.888C896.148 174.568 890.932 173.992 885.876 173.16C880.82 172.264 876.276 170.984 872.244 169.32C868.212 167.656 864.98 165.448 862.548 162.696C860.18 159.944 858.996 156.488 858.996 152.328C858.996 147.976 860.34 144.296 863.028 141.288C865.78 138.28 869.524 135.88 874.26 134.088C878.996 132.296 884.404 131.016 890.484 130.248C896.628 129.416 903.06 129 909.78 129C915.796 129 921.844 129.288 927.924 129.864C934.068 130.376 940.02 131.112 945.78 132.072C951.54 132.968 956.884 134.024 961.812 135.24C966.74 136.456 970.964 137.736 974.484 139.08L965.556 154.728C960.116 152.808 954.1 151.208 947.508 149.928C940.98 148.584 934.196 147.592 927.156 146.952C920.116 146.248 913.14 145.896 906.228 145.896C895.54 145.896 890.196 147.016 890.196 149.256C890.196 150.28 891.444 151.016 893.94 151.464C896.436 151.912 899.764 152.2 903.924 152.328C908.148 152.392 912.788 152.488 917.844 152.616C922.836 152.744 928.02 152.968 933.396 153.288C938.836 153.608 944.052 154.184 949.044 155.016C954.1 155.848 958.644 157.096 962.676 158.76C966.772 160.36 970.004 162.504 972.372 165.192C974.74 167.88 975.924 171.24 975.924 175.272C975.924 179.688 974.452 183.432 971.508 186.504C968.628 189.576 964.692 192.072 959.7 193.992C954.708 195.848 949.012 197.192 942.612 198.024C936.212 198.856 929.524 199.272 922.548 199.272Z" fill="#BB5353"/>
<path d="M704.264 197.736V130.536H799.976C806.824 130.536 812.072 132.072 815.72 135.144C819.368 138.152 821.192 142.312 821.192 147.624C821.192 151.72 819.944 155.048 817.448 157.608C814.952 160.168 811.048 161.928 805.736 162.888V164.808C811.56 165.32 815.944 166.984 818.888 169.8C821.832 172.552 823.304 176.136 823.304 180.552V197.736H792.2V181.512C792.2 180.36 791.848 179.432 791.144 178.728C790.44 178.024 789.48 177.672 788.264 177.672H734.024V197.736H704.264ZM734.024 159.432H786.344C787.56 159.432 788.52 159.048 789.224 158.28C789.928 157.512 790.28 156.488 790.28 155.208C790.28 153.8 789.896 152.744 789.128 152.04C788.36 151.336 787.432 150.984 786.344 150.984H734.024V159.432Z" fill="#BB5353"/>
<path d="M634.849 199.272C595.169 199.272 575.329 186.504 575.329 160.968V130.536H605.089V160.008C605.089 171.464 615.009 177.192 634.849 177.192C654.689 177.192 664.609 171.464 664.609 160.008V130.536H694.369V160.968C694.369 186.504 674.529 199.272 634.849 199.272Z" fill="#BB5353"/>
<path d="M508.994 199.272C496.834 199.272 486.274 197.896 477.314 195.144C468.418 192.328 461.538 188.328 456.674 183.144C451.874 177.96 449.474 171.816 449.474 164.712V163.56C449.474 156.392 451.874 150.248 456.674 145.128C461.538 139.944 468.418 135.976 477.314 133.224C486.274 130.408 496.834 129 508.994 129C521.218 129 531.778 130.408 540.674 133.224C549.57 135.976 556.418 139.944 561.218 145.128C566.082 150.248 568.514 156.392 568.514 163.56V164.712C568.514 171.816 566.082 177.96 561.218 183.144C556.418 188.328 549.57 192.328 540.674 195.144C531.778 197.896 521.218 199.272 508.994 199.272ZM508.994 177.192C517.762 177.192 524.674 176.104 529.73 173.928C534.85 171.688 537.41 168.616 537.41 164.712V163.56C537.41 159.656 534.85 156.616 529.73 154.44C524.674 152.2 517.762 151.08 508.994 151.08C500.29 151.08 493.378 152.2 488.258 154.44C483.138 156.616 480.578 159.656 480.578 163.56V164.712C480.578 168.616 483.138 171.688 488.258 173.928C493.378 176.104 500.29 177.192 508.994 177.192Z" fill="#BB5353"/>
<path d="M387.078 197.736V173.544L342.438 130.536H379.59L401.958 152.712L424.326 130.536H461.478L416.838 173.544V197.736H387.078Z" fill="#BB5353"/>
<path d="M1552.79 174.696V197.736H1582.55V174.696H1552.79ZM1552.79 142.057V165.097H1582.55V142.057H1552.79ZM1585.55 200.736H1549.79V171.696H1585.55V200.736ZM1585.55 168.097H1549.79V139.057H1585.55V168.097Z" fill="#843D3D"/>
<path d="M1425.34 152.328C1425.34 147.302 1426.91 142.892 1430.13 139.289L1430.16 139.264C1433.3 135.835 1437.47 133.201 1442.54 131.282C1447.53 129.394 1453.17 128.067 1459.42 127.275C1465.71 126.424 1472.28 126 1479.12 126C1485.24 126 1491.38 126.293 1497.55 126.878C1503.76 127.396 1509.78 128.141 1515.62 129.113C1520.71 129.906 1525.5 130.825 1529.97 131.871L1531.87 132.328C1536.88 133.564 1541.23 134.878 1544.9 136.277L1548.17 137.526L1536.71 157.609C1539.56 159.121 1542 160.977 1543.97 163.209C1546.88 166.514 1548.27 170.608 1548.27 175.272L1548.26 175.754C1548.16 180.71 1546.41 185.041 1543.02 188.58L1543.02 188.579C1539.76 192.046 1535.41 194.757 1530.12 196.792L1530.11 196.799L1530.09 196.805C1524.85 198.754 1518.92 200.144 1512.34 200.999C1505.8 201.849 1498.99 202.272 1491.89 202.272C1483.96 202.272 1475.97 201.753 1467.92 200.715C1460.39 199.805 1453.17 198.609 1446.25 197.126L1444.88 196.825L1444.86 196.823L1444.85 196.82C1437.54 195.139 1431.01 193.319 1425.26 191.359L1421.82 190.188L1433.82 169.166L1436.21 170.063C1436.3 170.097 1436.39 170.129 1436.48 170.163C1433.83 168.649 1431.54 166.829 1429.64 164.683L1429.62 164.653C1426.71 161.278 1425.34 157.095 1425.34 152.328ZM1475.57 148.896C1472.94 148.896 1470.69 148.966 1468.8 149.097C1470.16 149.198 1471.68 149.278 1473.35 149.329C1477.58 149.393 1482.21 149.489 1487.26 149.617C1490.19 149.692 1493.19 149.801 1496.25 149.941L1496.23 149.94L1496.21 149.938L1496.2 149.938C1489.26 149.243 1482.38 148.896 1475.57 148.896ZM1428.35 153.1C1428.49 156.917 1429.67 160.116 1431.89 162.696C1434.32 165.448 1437.56 167.656 1441.59 169.32C1445.62 170.984 1450.16 172.264 1455.22 173.16C1460.28 173.992 1465.49 174.569 1470.87 174.889C1476.31 175.209 1481.56 175.433 1486.61 175.561C1491.73 175.689 1496.37 175.816 1500.53 175.944C1504.69 176.008 1507.99 176.264 1510.42 176.712L1510.87 176.8C1513.07 177.257 1514.16 177.997 1514.16 179.017L1514.16 179.129C1514.06 180.288 1512.36 181.146 1509.08 181.704C1505.68 182.216 1500.66 182.473 1494 182.473V179.473C1498.53 179.473 1502.23 179.352 1505.12 179.123C1504.16 179.06 1503.11 179.009 1501.97 178.977L1500.49 178.944L1500.46 178.943H1500.44C1498.36 178.879 1496.17 178.815 1493.85 178.751L1486.54 178.56C1481.45 178.431 1476.16 178.205 1470.69 177.883H1470.69C1467.63 177.7 1464.61 177.433 1461.65 177.087C1463.19 177.347 1464.71 177.575 1466.23 177.765C1475.91 178.904 1485.17 179.473 1494 179.473V182.473L1492.32 182.466C1484.43 182.403 1476.23 181.898 1467.71 180.953L1465.88 180.744C1456.15 179.528 1445.91 176.904 1435.16 172.872L1426.23 188.521C1431.86 190.44 1438.29 192.233 1445.52 193.896C1452.76 195.496 1460.34 196.776 1468.28 197.736C1475.72 198.696 1483.1 199.207 1490.43 199.267L1491.89 199.272C1498.43 199.272 1504.72 198.907 1510.75 198.176L1511.96 198.024C1517.96 197.244 1523.34 196.014 1528.1 194.334L1529.04 193.992C1534.04 192.072 1537.97 189.576 1540.85 186.504C1543.7 183.528 1545.17 179.922 1545.26 175.685L1545.27 175.272C1545.27 171.367 1544.16 168.091 1541.93 165.446L1541.72 165.192C1539.35 162.504 1536.12 160.361 1532.02 158.761C1528.24 157.201 1524.01 156.006 1519.33 155.177L1518.39 155.017C1514.02 154.289 1509.48 153.756 1504.77 153.42L1502.74 153.288C1497.36 152.968 1492.18 152.744 1487.19 152.616C1482.13 152.488 1477.49 152.392 1473.27 152.328C1469.63 152.216 1466.62 151.982 1464.26 151.625L1463.28 151.464C1460.79 151.016 1459.54 150.28 1459.54 149.256C1459.54 147.016 1464.89 145.896 1475.57 145.896L1476.87 145.9C1483.36 145.942 1489.9 146.292 1496.5 146.952C1503.54 147.592 1510.32 148.585 1516.85 149.929L1518.08 150.172C1523.79 151.327 1529.05 152.727 1533.87 154.372L1534.9 154.729L1543.83 139.08C1540.75 137.904 1537.13 136.777 1532.97 135.699L1531.16 135.24C1526.84 134.176 1522.21 133.235 1517.26 132.416L1515.12 132.072C1509.36 131.112 1503.41 130.376 1497.27 129.864C1491.95 129.36 1486.65 129.077 1481.38 129.014L1479.12 129C1472.4 129 1465.97 129.416 1459.83 130.248C1453.75 131.016 1448.34 132.296 1443.6 134.088C1438.87 135.88 1435.12 138.28 1432.37 141.288C1429.68 144.296 1428.34 147.976 1428.34 152.328L1428.35 153.1Z" fill="#843D3D"/>
<path d="M1331.75 160.009V130.536H1301.99V160.969L1302 162.156C1302.6 186.507 1321.82 198.876 1359.66 199.263L1361.5 199.272C1400.56 199.272 1420.4 186.9 1421.01 162.156L1421.03 160.969V130.536H1391.26V160.009L1391.26 160.541C1390.95 171.642 1381.03 177.192 1361.5 177.192V174.192C1371.23 174.192 1378.04 172.77 1382.33 170.298C1386.36 167.97 1388.26 164.665 1388.26 160.009V127.536H1424.03V160.969L1424.02 161.607C1423.86 174.986 1418.46 185.34 1407.77 192.219C1397.14 199.061 1381.57 202.272 1361.5 202.272C1341.44 202.272 1325.87 199.061 1315.24 192.219C1304.38 185.231 1298.99 174.656 1298.99 160.969V127.536H1334.75V160.009L1334.75 160.44C1334.87 164.87 1336.78 168.042 1340.69 170.298C1344.97 172.77 1351.78 174.192 1361.5 174.192V177.192L1360.58 177.188C1341.66 177.015 1332.05 171.466 1331.75 160.541L1331.75 160.009Z" fill="#843D3D"/>
<path d="M1177.23 130.536V152.809H1221.87V197.736H1251.63V152.809H1296.27V130.536H1177.23ZM1299.27 155.809H1254.63V200.736H1218.87V155.809H1174.23V127.536H1299.27V155.809Z" fill="#843D3D"/>
<path d="M1156.47 127.536L1202.06 200.736H1162.92L1157.16 190.272H1117.37L1111.32 200.736H1072.21L1117.91 127.536H1156.47ZM1119.57 130.536L1077.62 197.736H1109.59L1115.64 187.272H1158.93L1164.69 197.736H1196.66L1154.8 130.536H1119.57ZM1138.68 148.681L1146.64 165L1149.81 170.761H1125.14L1128.4 165L1136.76 148.681H1138.68ZM1131.08 166.367L1131.05 166.424L1131.01 166.479L1130.29 167.761H1144.74L1144.02 166.446L1143.98 166.382L1143.95 166.316L1137.67 153.468L1131.08 166.367Z" fill="#843D3D"/>
<path d="M978.012 130.536V152.809H1022.65V197.736H1052.41V152.809H1097.05V130.536H978.012ZM1100.05 155.809H1055.41V200.736H1019.65V155.809H975.012V127.536H1100.05V155.809Z" fill="#843D3D"/>
<path d="M855.996 152.328C855.996 147.302 857.571 142.892 860.791 139.289L860.814 139.264C863.951 135.835 868.127 133.201 873.198 131.282C878.189 129.394 883.825 128.067 890.081 127.275C896.369 126.424 902.937 126 909.78 126C915.892 126 922.034 126.293 928.207 126.878C934.417 127.396 940.439 128.141 946.273 129.113C951.367 129.906 956.152 130.825 960.628 131.871L962.53 132.328C967.539 133.564 971.888 134.878 975.554 136.277L978.012 137.216V138.95L967.365 157.609C970.219 159.121 972.657 160.977 974.623 163.209C977.535 166.514 978.924 170.608 978.924 175.272L978.919 175.754C978.813 180.71 977.066 185.041 973.674 188.58L973.673 188.579C970.414 192.046 966.069 194.757 960.777 196.792L960.762 196.799L960.745 196.805C955.501 198.754 949.578 200.144 942.999 200.999C936.461 201.849 929.643 202.272 922.548 202.272C914.616 202.272 906.624 201.753 898.571 200.715C891.048 199.805 883.827 198.609 876.911 197.126L875.532 196.825L875.52 196.823L875.508 196.82C868.199 195.139 861.665 193.319 855.916 191.359L852.479 190.188L864.473 169.166L866.865 170.063C866.956 170.097 867.047 170.129 867.138 170.163C864.488 168.649 862.197 166.829 860.3 164.683L860.274 164.653C857.37 161.278 855.996 157.095 855.996 152.328ZM906.229 148.896C903.595 148.896 901.342 148.966 899.452 149.097C900.817 149.198 902.334 149.278 904.006 149.329C908.232 149.393 912.87 149.489 917.92 149.617C920.849 149.692 923.844 149.801 926.901 149.941L926.885 149.94L926.871 149.938L926.857 149.938C919.914 149.243 913.038 148.896 906.229 148.896ZM859.01 153.1C859.148 156.917 860.328 160.116 862.548 162.696C864.98 165.448 868.212 167.656 872.244 169.32C876.276 170.984 880.82 172.264 885.876 173.16C890.932 173.992 896.148 174.569 901.524 174.889C906.964 175.209 912.212 175.433 917.268 175.561C922.388 175.689 927.028 175.816 931.188 175.944C935.348 176.008 938.644 176.264 941.076 176.712L941.529 176.8C943.723 177.257 944.82 177.997 944.82 179.017L944.815 179.129C944.713 180.288 943.019 181.146 939.732 181.704C936.34 182.216 931.316 182.473 924.66 182.473V179.473C929.187 179.473 932.883 179.352 935.779 179.123C934.813 179.06 933.764 179.009 932.63 178.977L931.142 178.944L931.119 178.943H931.096C929.019 178.879 926.822 178.815 924.505 178.751L917.193 178.56C912.101 178.431 906.819 178.205 901.348 177.883H901.346C898.282 177.7 895.268 177.433 892.302 177.087C893.843 177.347 895.369 177.575 896.882 177.765C906.569 178.904 915.828 179.473 924.66 179.473V182.473L922.976 182.466C915.09 182.403 906.886 181.898 898.363 180.953L896.532 180.744C886.804 179.528 876.564 176.904 865.812 172.872L856.884 188.521C862.516 190.44 868.948 192.233 876.18 193.896C883.412 195.496 890.996 196.776 898.932 197.736C906.372 198.696 913.756 199.207 921.083 199.267L922.548 199.272C929.088 199.272 935.375 198.907 941.408 198.176L942.612 198.024C948.612 197.244 953.993 196.014 958.756 194.334L959.7 193.992C964.692 192.072 968.628 189.576 971.508 186.504C974.36 183.528 975.831 179.922 975.92 175.685L975.924 175.272C975.924 171.367 974.813 168.091 972.591 165.446L972.372 165.192C970.004 162.504 966.772 160.361 962.676 158.761C958.896 157.201 954.666 156.006 949.986 155.177L949.044 155.017C944.676 154.289 940.137 153.756 935.426 153.42L933.396 153.288C928.02 152.968 922.836 152.744 917.844 152.616C912.788 152.488 908.148 152.392 903.924 152.328C900.284 152.216 897.281 151.982 894.915 151.625L893.94 151.464C891.444 151.016 890.196 150.28 890.196 149.256C890.197 147.016 895.541 145.896 906.229 145.896L907.524 145.9C914.012 145.942 920.556 146.292 927.156 146.952C934.196 147.592 940.98 148.585 947.508 149.929L948.737 150.172C954.442 151.327 959.706 152.727 964.529 154.372L965.556 154.729L974.484 139.08C971.404 137.904 967.785 136.777 963.627 135.699L961.812 135.24C957.501 134.176 952.87 133.235 947.921 132.416L945.78 132.072C940.02 131.112 934.068 130.376 927.924 129.864C922.604 129.36 917.308 129.077 912.037 129.014L909.78 129C903.06 129 896.628 129.416 890.484 130.248C884.404 131.016 878.996 132.296 874.26 134.088C869.524 135.88 865.78 138.28 863.028 141.288C860.34 144.296 858.996 147.976 858.996 152.328L859.01 153.1Z" fill="#843D3D"/>
<path d="M823.305 180.553C823.305 176.137 821.832 172.553 818.889 169.801C815.945 166.985 811.56 165.321 805.736 164.809V162.889C810.882 161.959 814.707 160.277 817.21 157.846L817.448 157.608C819.788 155.208 821.031 152.134 821.178 148.384L821.192 147.624C821.192 142.478 819.48 138.413 816.057 135.43L815.721 135.145C812.187 132.168 807.151 130.634 800.613 130.541L799.977 130.536V127.536C807.216 127.536 813.249 129.154 817.629 132.83C822.059 136.483 824.192 141.541 824.192 147.624L824.188 148.068C824.098 152.636 822.621 156.6 819.597 159.702C818.09 161.248 816.23 162.498 814.072 163.494C816.734 164.453 819.043 165.806 820.936 167.608H820.937C824.549 170.985 826.305 175.394 826.305 180.553V200.736H789.2V181.513C789.2 181.144 789.13 180.985 789.073 180.906L789.023 180.85C789.005 180.831 788.903 180.709 788.471 180.679L788.265 180.672H737.024V200.736H701.265V127.536H799.977V130.536H704.265V197.736H734.024V177.672H788.265C789.48 177.672 790.441 178.025 791.145 178.729C791.848 179.432 792.2 180.361 792.2 181.513V197.736H823.305V180.553ZM787.28 155.208C787.28 154.769 787.219 154.514 787.173 154.386C787.153 154.33 787.135 154.297 787.122 154.277L787.102 154.252C786.937 154.101 786.767 154.009 786.477 153.988L786.345 153.984H737.024V156.433H786.345V159.433H734.024V150.984H786.345C787.432 150.984 788.36 151.336 789.128 152.04C789.896 152.744 790.28 153.8 790.28 155.208C790.28 156.488 789.928 157.512 789.225 158.28L789.089 158.42C788.399 159.095 787.484 159.433 786.345 159.433V156.433C786.873 156.433 786.973 156.296 787.013 156.253C787.1 156.158 787.28 155.917 787.28 155.208Z" fill="#843D3D"/>
<path d="M605.089 160.009V130.536H575.329V160.969L575.344 162.156C575.945 186.507 595.164 198.876 633.003 199.263L634.849 199.272C673.908 199.272 693.744 186.9 694.354 162.156L694.369 160.969V130.536H664.608V160.009L664.602 160.541C664.296 171.642 654.379 177.192 634.849 177.192V174.192C644.578 174.192 651.388 172.77 655.669 170.298C659.7 167.97 661.608 164.665 661.608 160.009V127.536H697.369V160.969L697.365 161.607C697.199 174.986 691.802 185.34 681.112 192.219C670.48 199.061 654.914 202.272 634.849 202.272C614.783 202.272 599.217 199.061 588.585 192.219C577.726 185.231 572.329 174.656 572.329 160.969V127.536H608.089V160.009L608.095 160.44C608.21 164.87 610.123 168.042 614.029 170.298C618.311 172.77 625.119 174.192 634.849 174.192V177.192L633.926 177.188C615.006 177.015 605.396 171.466 605.096 160.541L605.089 160.009Z" fill="#843D3D"/>
<path d="M568.514 163.561C568.514 156.393 566.082 150.248 561.218 145.128C556.568 140.106 549.996 136.226 541.502 133.486L540.674 133.225C531.778 130.409 521.217 129 508.993 129C496.833 129 486.273 130.409 477.313 133.225L476.485 133.486C467.99 136.226 461.386 140.106 456.674 145.128C451.874 150.248 449.474 156.393 449.474 163.561V164.712L449.48 165.376C449.626 172.2 452.024 178.123 456.674 183.145C461.538 188.328 468.418 192.329 477.313 195.145C485.994 197.811 496.175 199.185 507.858 199.269L508.993 199.272C520.835 199.272 531.116 197.981 539.835 195.398L540.674 195.145C549.57 192.329 556.418 188.328 561.218 183.145C565.93 178.123 568.359 172.2 568.507 165.376L568.514 164.712V163.561ZM534.409 163.561C534.409 161.364 533.121 159.141 528.556 157.201L528.515 157.184C524 155.183 517.56 154.08 508.993 154.08C500.497 154.08 494.049 155.181 489.46 157.188L489.445 157.195L489.431 157.201C484.866 159.141 483.577 161.364 483.577 163.561V164.712C483.577 166.919 484.88 169.171 489.443 171.172C494.042 173.123 500.497 174.192 508.993 174.192V177.192L507.383 177.18C499.698 177.056 493.485 176.039 488.743 174.129L488.258 173.929C483.138 171.689 480.577 168.616 480.577 164.712V163.561C480.577 159.778 482.98 156.807 487.785 154.646L488.258 154.44C493.378 152.201 500.289 151.08 508.993 151.08C517.761 151.08 524.673 152.2 529.729 154.44C534.849 156.616 537.409 159.657 537.409 163.561V164.712C537.409 168.616 534.849 171.689 529.729 173.929L529.25 174.129C524.24 176.171 517.487 177.192 508.993 177.192V174.192C517.557 174.192 524.003 173.123 528.527 171.18C533.105 169.177 534.409 166.922 534.409 164.712V163.561ZM571.514 164.712L571.506 165.447C571.341 173.002 568.626 179.624 563.418 185.182C558.169 190.851 550.817 195.081 541.579 198.005L541.569 198.008L541.561 198.011C532.304 200.874 521.429 202.272 508.993 202.272C496.618 202.272 485.748 200.873 476.433 198.012L476.421 198.009L476.408 198.005C467.46 195.172 460.257 191.118 454.989 185.724L454.485 185.197L454.479 185.189L454.473 185.183C449.156 179.441 446.474 172.567 446.474 164.712V163.561C446.474 155.648 449.152 148.765 454.485 143.076V143.075C459.799 137.412 467.184 133.218 476.427 130.358C485.746 127.431 496.619 126 508.993 126C521.427 126 532.301 127.43 541.561 130.358C550.804 133.218 558.165 137.415 563.419 143.09H563.418C568.803 148.771 571.514 155.649 571.514 163.561V164.712Z" fill="#843D3D"/>
<path d="M380.824 127.536L401.957 148.487L423.09 127.536H468.915L419.837 174.82V200.736H384.077V174.819L335 127.536H380.824ZM342.438 130.536L387.077 173.544V197.736H416.837V173.544L461.478 130.536H424.325L401.957 152.712L379.589 130.536H342.438Z" fill="#843D3D"/>
<path d="M1545.25 379.52V304H1549.09V379.52H1545.25ZM1560.61 379.52V304H1564.45V379.52H1560.61ZM1575.97 379.52V304H1579.81V379.52H1575.97ZM1583.65 379.52V304H1587.49V379.52H1583.65ZM1599.01 379.52V304H1602.85V379.52H1599.01ZM1606.69 379.52V304H1610.53V379.52H1606.69ZM1622.05 379.52V304H1633.57V379.52H1622.05ZM1637.41 379.52V304H1648.93V379.52H1637.41ZM1652.77 379.52V304H1656.61V379.52H1652.77ZM1660.45 379.52V304H1664.29V379.52H1660.45Z" fill="#BB5353"/>
<path d="M1422.38 379.52V304H1426.21V379.52H1422.38ZM1437.73 379.52V304H1441.57V379.52H1437.73ZM1445.42 379.52V304H1449.26V379.52H1445.42ZM1460.78 379.52V304H1464.61V379.52H1460.78ZM1476.14 379.52V304H1479.97V379.52H1476.14ZM1483.81 379.52V304H1487.66V379.52H1483.81ZM1491.49 379.52V304H1503.02V379.52H1491.49ZM1506.85 379.52V304H1510.7V379.52H1506.85ZM1514.54 379.52V304H1526.06V379.52H1514.54ZM1537.57 379.52V304H1541.42V379.52H1537.57Z" fill="#BB5353"/>
<path d="M1299.5 379.52V304H1303.34V379.52H1299.5ZM1314.86 379.52V304H1318.7V379.52H1314.86ZM1322.54 379.52V304H1326.38V379.52H1322.54ZM1337.9 379.52V304H1341.74V379.52H1337.9ZM1353.26 379.52V304H1357.1V379.52H1353.26ZM1360.94 379.52V304H1372.46V379.52H1360.94ZM1383.98 379.52V304H1387.82V379.52H1383.98ZM1391.66 379.52V304H1395.5V379.52H1391.66ZM1399.34 379.52V304H1403.18V379.52H1399.34ZM1407.02 379.52V304H1418.54V379.52H1407.02Z" fill="#BB5353"/>
<path d="M1176.62 379.52V304H1180.47V379.52H1176.62ZM1191.98 379.52V304H1195.83V379.52H1191.98ZM1199.66 379.52V304H1203.51V379.52H1199.66ZM1215.03 379.52V304H1218.86V379.52H1215.03ZM1230.39 379.52V304H1234.22V379.52H1230.39ZM1238.07 379.52V304H1241.91V379.52H1238.07ZM1245.74 379.52V304H1249.59V379.52H1245.74ZM1253.42 379.52V304H1264.95V379.52H1253.42ZM1268.79 379.52V304H1280.31V379.52H1268.79ZM1291.82 379.52V304H1295.67V379.52H1291.82Z" fill="#BB5353"/>
<path d="M1053.75 379.52V304H1057.59V379.52H1053.75ZM1069.11 379.52V304H1072.95V379.52H1069.11ZM1076.79 379.52V304H1080.63V379.52H1076.79ZM1092.15 379.52V304H1095.99V379.52H1092.15ZM1107.51 379.52V304H1111.35V379.52H1107.51ZM1115.19 379.52V304H1126.71V379.52H1115.19ZM1130.55 379.52V304H1134.39V379.52H1130.55ZM1138.23 379.52V304H1142.07V379.52H1138.23ZM1153.59 379.52V304H1157.43V379.52H1153.59ZM1161.27 379.52V304H1172.79V379.52H1161.27Z" fill="#BB5353"/>
<path d="M930.875 379.52V304H934.715V379.52H930.875ZM946.235 379.52V304H950.075V379.52H946.235ZM953.915 379.52V304H957.755V379.52H953.915ZM969.275 379.52V304H973.115V379.52H969.275ZM984.635 379.52V304H988.475V379.52H984.635ZM992.315 379.52V304H996.155V379.52H992.315ZM999.995 379.52V304H1003.84V379.52H999.995ZM1007.67 379.52V304H1019.2V379.52H1007.67ZM1023.04 379.52V304H1034.55V379.52H1023.04ZM1046.08 379.52V304H1049.92V379.52H1046.08Z" fill="#BB5353"/>
<path d="M808 379.52V304H811.84V379.52H808ZM823.36 379.52V304H827.2V379.52H823.36ZM831.04 379.52V304H834.88V379.52H831.04ZM846.4 379.52V304H850.24V379.52H846.4ZM861.76 379.52V304H865.6V379.52H861.76ZM869.44 379.52V304H873.28V379.52H869.44ZM877.12 379.52V304H888.64V379.52H877.12ZM892.48 379.52V304H896.32V379.52H892.48ZM900.16 379.52V304H911.68V379.52H900.16ZM923.2 379.52V304H927.04V379.52H923.2Z" fill="#BB5353"/>
<path d="M746.5 379.52V304H750.34V379.52H746.5ZM761.86 379.52V304H773.38V379.52H761.86ZM777.22 379.52V304H781.06V379.52H777.22ZM784.9 379.52V304H796.42V379.52H784.9ZM800.26 379.52V304H804.1V379.52H800.26Z" fill="#BB5353"/>
<path d="M623.625 379.52V304H627.465V379.52H623.625ZM638.985 379.52V304H642.825V379.52H638.985ZM646.665 379.52V304H650.505V379.52H646.665ZM662.025 379.52V304H665.865V379.52H662.025ZM677.385 379.52V304H681.225V379.52H677.385ZM685.065 379.52V304H696.585V379.52H685.065ZM700.425 379.52V304H704.265V379.52H700.425ZM708.105 379.52V304H711.945V379.52H708.105ZM715.785 379.52V304H727.305V379.52H715.785ZM738.825 379.52V304H742.665V379.52H738.825Z" fill="#BB5353"/>
<path d="M500.75 379.52V304H504.59V379.52H500.75ZM516.11 379.52V304H519.95V379.52H516.11ZM523.79 379.52V304H527.63V379.52H523.79ZM539.15 379.52V304H542.99V379.52H539.15ZM554.51 379.52V304H558.35V379.52H554.51ZM562.19 379.52V304H573.71V379.52H562.19ZM585.23 379.52V304H589.07V379.52H585.23ZM592.91 379.52V304H596.75V379.52H592.91ZM600.59 379.52V304H604.43V379.52H600.59ZM608.27 379.52V304H619.79V379.52H608.27Z" fill="#BB5353"/>
<path d="M377.875 379.52V304H381.715V379.52H377.875ZM393.235 379.52V304H397.075V379.52H393.235ZM400.915 379.52V304H404.755V379.52H400.915ZM416.275 379.52V304H420.115V379.52H416.275ZM431.635 379.52V304H435.475V379.52H431.635ZM439.315 379.52V304H450.835V379.52H439.315ZM454.675 379.52V304H458.515V379.52H454.675ZM462.355 379.52V304H473.875V379.52H462.355ZM477.715 379.52V304H481.555V379.52H477.715ZM493.075 379.52V304H496.915V379.52H493.075Z" fill="#BB5353"/>
<path d="M255 379.52V304H258.84V379.52H255ZM270.36 379.52V304H274.2V379.52H270.36ZM278.04 379.52V304H281.88V379.52H278.04ZM293.4 379.52V304H297.24V379.52H293.4ZM308.76 379.52V304H312.6V379.52H308.76ZM316.44 379.52V304H327.96V379.52H316.44ZM339.48 379.52V304H343.32V379.52H339.48ZM347.16 379.52V304H358.68V379.52H347.16ZM362.52 379.52V304H366.36V379.52H362.52ZM370.2 379.52V304H374.04V379.52H370.2Z" fill="#BB5353"/>
<path d="M1545.25 304V379.52H1549.09V304H1545.25ZM1560.61 304V379.52H1564.45V304H1560.61ZM1575.97 304V379.52H1579.81V304H1575.97ZM1583.65 304V379.52H1587.49V304H1583.65ZM1599.01 304V379.52H1602.85V304H1599.01ZM1606.69 304V379.52H1610.53V304H1606.69ZM1622.05 304V379.52H1633.57V304H1622.05ZM1637.41 304V379.52H1648.93V304H1637.41ZM1652.77 304V379.52H1656.61V304H1652.77ZM1660.45 304V379.52H1664.29V304H1660.45ZM1550.09 380.52H1544.25V303H1550.09V380.52ZM1565.45 380.52H1559.61V303H1565.45V380.52ZM1580.81 380.52H1574.97V303H1580.81V380.52ZM1588.49 380.52H1582.65V303H1588.49V380.52ZM1603.85 380.52H1598.01V303H1603.85V380.52ZM1611.53 380.52H1605.69V303H1611.53V380.52ZM1634.57 380.52H1621.05V303H1634.57V380.52ZM1649.93 380.52H1636.41V303H1649.93V380.52ZM1657.61 380.52H1651.77V303H1657.61V380.52ZM1665.29 380.52H1659.45V303H1665.29V380.52Z" fill="#BB5353"/>
<path d="M1422.38 304V379.52H1426.21V304H1422.38ZM1437.74 304V379.52H1441.58V304H1437.74ZM1445.42 304V379.52H1449.25V304H1445.42ZM1460.78 304V379.52H1464.62V304H1460.78ZM1476.13 304V379.52H1479.97V304H1476.13ZM1483.82 304V379.52H1487.66V304H1483.82ZM1491.5 304V379.52H1503.01V304H1491.5ZM1506.86 304V379.52H1510.7V304H1506.86ZM1514.54 304V379.52H1526.05V304H1514.54ZM1537.58 304V379.52H1541.42V304H1537.58ZM1427.21 380.52H1421.38V303H1427.21V380.52ZM1442.58 380.52H1436.74V303H1442.58V380.52ZM1450.25 380.52H1444.42V303H1450.25V380.52ZM1465.62 380.52H1459.78V303H1465.62V380.52ZM1480.97 380.52H1475.13V303H1480.97V380.52ZM1488.66 380.52H1482.82V303H1488.66V380.52ZM1504.01 380.52H1490.5V303H1504.01V380.52ZM1511.7 380.52H1505.86V303H1511.7V380.52ZM1527.05 380.52H1513.54V303H1527.05V380.52ZM1542.42 380.52H1536.58V303H1542.42V380.52Z" fill="#BB5353"/>
<path d="M1299.5 304V379.52H1303.34V304H1299.5ZM1314.86 304V379.52H1318.7V304H1314.86ZM1322.54 304V379.52H1326.38V304H1322.54ZM1337.9 304V379.52H1341.74V304H1337.9ZM1353.26 304V379.52H1357.1V304H1353.26ZM1360.94 304V379.52H1372.46V304H1360.94ZM1383.98 304V379.52H1387.82V304H1383.98ZM1391.66 304V379.52H1395.5V304H1391.66ZM1399.34 304V379.52H1403.18V304H1399.34ZM1407.02 304V379.52H1418.54V304H1407.02ZM1304.34 380.52H1298.5V303H1304.34V380.52ZM1319.7 380.52H1313.86V303H1319.7V380.52ZM1327.38 380.52H1321.54V303H1327.38V380.52ZM1342.74 380.52H1336.9V303H1342.74V380.52ZM1358.1 380.52H1352.26V303H1358.1V380.52ZM1373.46 380.52H1359.94V303H1373.46V380.52ZM1388.82 380.52H1382.98V303H1388.82V380.52ZM1396.5 380.52H1390.66V303H1396.5V380.52ZM1404.18 380.52H1398.34V303H1404.18V380.52ZM1419.54 380.52H1406.02V303H1419.54V380.52Z" fill="#BB5353"/>
<path d="M1176.62 304V379.52H1180.46V304H1176.62ZM1191.99 304V379.52H1195.83V304H1191.99ZM1199.67 304V379.52H1203.5V304H1199.67ZM1215.03 304V379.52H1218.87V304H1215.03ZM1230.38 304V379.52H1234.22V304H1230.38ZM1238.07 304V379.52H1241.91V304H1238.07ZM1245.75 304V379.52H1249.58V304H1245.75ZM1253.42 304V379.52H1264.95V304H1253.42ZM1268.79 304V379.52H1280.3V304H1268.79ZM1291.83 304V379.52H1295.67V304H1291.83ZM1181.46 380.52H1175.62V303H1181.46V380.52ZM1196.83 380.52H1190.99V303H1196.83V380.52ZM1204.5 380.52H1198.67V303H1204.5V380.52ZM1219.87 380.52H1214.03V303H1219.87V380.52ZM1235.22 380.52H1229.38V303H1235.22V380.52ZM1242.91 380.52H1237.07V303H1242.91V380.52ZM1250.58 380.52H1244.75V303H1250.58V380.52ZM1265.95 380.52H1252.42V303H1265.95V380.52ZM1281.3 380.52H1267.79V303H1281.3V380.52ZM1296.67 380.52H1290.83V303H1296.67V380.52Z" fill="#BB5353"/>
<path d="M1053.75 304V379.52H1057.59V304H1053.75ZM1069.11 304V379.52H1072.95V304H1069.11ZM1076.79 304V379.52H1080.63V304H1076.79ZM1092.15 304V379.52H1095.99V304H1092.15ZM1107.51 304V379.52H1111.35V304H1107.51ZM1115.19 304V379.52H1126.71V304H1115.19ZM1130.55 304V379.52H1134.39V304H1130.55ZM1138.23 304V379.52H1142.07V304H1138.23ZM1153.59 304V379.52H1157.43V304H1153.59ZM1161.27 304V379.52H1172.79V304H1161.27ZM1058.59 380.52H1052.75V303H1058.59V380.52ZM1073.95 380.52H1068.11V303H1073.95V380.52ZM1081.63 380.52H1075.79V303H1081.63V380.52ZM1096.99 380.52H1091.15V303H1096.99V380.52ZM1112.35 380.52H1106.51V303H1112.35V380.52ZM1127.71 380.52H1114.19V303H1127.71V380.52ZM1135.39 380.52H1129.55V303H1135.39V380.52ZM1143.07 380.52H1137.23V303H1143.07V380.52ZM1158.43 380.52H1152.59V303H1158.43V380.52ZM1173.79 380.52H1160.27V303H1173.79V380.52Z" fill="#BB5353"/>
<path d="M930.875 304V379.52H934.715V304H930.875ZM946.235 304V379.52H950.075V304H946.235ZM953.915 304V379.52H957.755V304H953.915ZM969.275 304V379.52H973.115V304H969.275ZM984.635 304V379.52H988.475V304H984.635ZM992.315 304V379.52H996.155V304H992.315ZM999.995 304V379.52H1003.83V304H999.995ZM1007.67 304V379.52H1019.2V304H1007.67ZM1023.04 304V379.52H1034.55V304H1023.04ZM1046.08 304V379.52H1049.92V304H1046.08ZM935.715 380.52H929.875V303H935.715V380.52ZM951.075 380.52H945.235V303H951.075V380.52ZM958.755 380.52H952.915V303H958.755V380.52ZM974.115 380.52H968.275V303H974.115V380.52ZM989.475 380.52H983.635V303H989.475V380.52ZM997.155 380.52H991.315V303H997.155V380.52ZM1004.83 380.52H998.995V303H1004.83V380.52ZM1020.2 380.52H1006.67V303H1020.2V380.52ZM1035.55 380.52H1022.04V303H1035.55V380.52ZM1050.92 380.52H1045.08V303H1050.92V380.52Z" fill="#BB5353"/>
<path d="M808 304V379.52H811.84V304H808ZM823.36 304V379.52H827.2V304H823.36ZM831.04 304V379.52H834.88V304H831.04ZM846.4 304V379.52H850.24V304H846.4ZM861.76 304V379.52H865.6V304H861.76ZM869.44 304V379.52H873.28V304H869.44ZM877.12 304V379.52H888.64V304H877.12ZM892.48 304V379.52H896.32V304H892.48ZM900.16 304V379.52H911.68V304H900.16ZM923.2 304V379.52H927.04V304H923.2ZM812.84 380.52H807V303H812.84V380.52ZM828.2 380.52H822.36V303H828.2V380.52ZM835.88 380.52H830.04V303H835.88V380.52ZM851.24 380.52H845.4V303H851.24V380.52ZM866.6 380.52H860.76V303H866.6V380.52ZM874.28 380.52H868.44V303H874.28V380.52ZM889.64 380.52H876.12V303H889.64V380.52ZM897.32 380.52H891.48V303H897.32V380.52ZM912.68 380.52H899.16V303H912.68V380.52ZM928.04 380.52H922.2V303H928.04V380.52Z" fill="#BB5353"/>
<path d="M746.5 304V379.52H750.34V304H746.5ZM761.86 304V379.52H773.38V304H761.86ZM777.22 304V379.52H781.06V304H777.22ZM784.9 304V379.52H796.42V304H784.9ZM800.26 304V379.52H804.1V304H800.26ZM751.34 380.52H745.5V303H751.34V380.52ZM774.38 380.52H760.86V303H774.38V380.52ZM782.06 380.52H776.22V303H782.06V380.52ZM797.42 380.52H783.9V303H797.42V380.52ZM805.1 380.52H799.26V303H805.1V380.52Z" fill="#BB5353"/>
<path d="M623.625 304V379.52H627.465V304H623.625ZM638.985 304V379.52H642.825V304H638.985ZM646.665 304V379.52H650.505V304H646.665ZM662.025 304V379.52H665.865V304H662.025ZM677.385 304V379.52H681.225V304H677.385ZM685.065 304V379.52H696.585V304H685.065ZM700.425 304V379.52H704.265V304H700.425ZM708.105 304V379.52H711.945V304H708.105ZM715.785 304V379.52H727.305V304H715.785ZM738.825 304V379.52H742.665V304H738.825ZM628.465 380.52H622.625V303H628.465V380.52ZM643.825 380.52H637.985V303H643.825V380.52ZM651.505 380.52H645.665V303H651.505V380.52ZM666.865 380.52H661.025V303H666.865V380.52ZM682.225 380.52H676.385V303H682.225V380.52ZM697.585 380.52H684.065V303H697.585V380.52ZM705.265 380.52H699.425V303H705.265V380.52ZM712.945 380.52H707.105V303H712.945V380.52ZM728.305 380.52H714.785V303H728.305V380.52ZM743.665 380.52H737.825V303H743.665V380.52Z" fill="#BB5353"/>
<path d="M500.75 304V379.52H504.59V304H500.75ZM516.11 304V379.52H519.95V304H516.11ZM523.79 304V379.52H527.63V304H523.79ZM539.15 304V379.52H542.99V304H539.15ZM554.51 304V379.52H558.35V304H554.51ZM562.19 304V379.52H573.71V304H562.19ZM585.23 304V379.52H589.07V304H585.23ZM592.91 304V379.52H596.75V304H592.91ZM600.59 304V379.52H604.43V304H600.59ZM608.27 304V379.52H619.79V304H608.27ZM505.59 380.52H499.75V303H505.59V380.52ZM520.95 380.52H515.11V303H520.95V380.52ZM528.63 380.52H522.79V303H528.63V380.52ZM543.99 380.52H538.15V303H543.99V380.52ZM559.35 380.52H553.51V303H559.35V380.52ZM574.71 380.52H561.19V303H574.71V380.52ZM590.07 380.52H584.23V303H590.07V380.52ZM597.75 380.52H591.91V303H597.75V380.52ZM605.43 380.52H599.59V303H605.43V380.52ZM620.79 380.52H607.27V303H620.79V380.52Z" fill="#BB5353"/>
<path d="M377.875 304V379.52H381.715V304H377.875ZM393.235 304V379.52H397.075V304H393.235ZM400.915 304V379.52H404.755V304H400.915ZM416.275 304V379.52H420.115V304H416.275ZM431.635 304V379.52H435.475V304H431.635ZM439.315 304V379.52H450.835V304H439.315ZM454.675 304V379.52H458.515V304H454.675ZM462.355 304V379.52H473.875V304H462.355ZM477.715 304V379.52H481.555V304H477.715ZM493.075 304V379.52H496.915V304H493.075ZM382.715 380.52H376.875V303H382.715V380.52ZM398.075 380.52H392.235V303H398.075V380.52ZM405.755 380.52H399.915V303H405.755V380.52ZM421.115 380.52H415.275V303H421.115V380.52ZM436.475 380.52H430.635V303H436.475V380.52ZM451.835 380.52H438.315V303H451.835V380.52ZM459.515 380.52H453.675V303H459.515V380.52ZM474.875 380.52H461.355V303H474.875V380.52ZM482.555 380.52H476.715V303H482.555V380.52ZM497.915 380.52H492.075V303H497.915V380.52Z" fill="#BB5353"/>
<path d="M255 304V379.52H258.84V304H255ZM270.36 304V379.52H274.2V304H270.36ZM278.04 304V379.52H281.88V304H278.04ZM293.4 304V379.52H297.24V304H293.4ZM308.76 304V379.52H312.6V304H308.76ZM316.44 304V379.52H327.96V304H316.44ZM339.48 304V379.52H343.32V304H339.48ZM347.16 304V379.52H358.68V304H347.16ZM362.52 304V379.52H366.36V304H362.52ZM370.2 304V379.52H374.04V304H370.2ZM259.84 380.52H254V303H259.84V380.52ZM275.2 380.52H269.36V303H275.2V380.52ZM282.88 380.52H277.04V303H282.88V380.52ZM298.24 380.52H292.4V303H298.24V380.52ZM313.6 380.52H307.76V303H313.6V380.52ZM328.96 380.52H315.44V303H328.96V380.52ZM344.32 380.52H338.48V303H344.32V380.52ZM359.68 380.52H346.16V303H359.68V380.52ZM367.36 380.52H361.52V303H367.36V380.52ZM375.04 380.52H369.2V303H375.04V380.52Z" fill="#BB5353"/>
<path d="M1243 877.04V726H1250.68V877.04H1243ZM1258.36 877.04V726H1266.04V877.04H1258.36ZM1273.72 877.04V726H1296.76V877.04H1273.72ZM1319.8 877.04V726H1327.48V877.04H1319.8ZM1335.16 877.04V726H1358.2V877.04H1335.16Z" fill="#BB5353"/>
<path d="M1120 877.04V726H1143.04V877.04H1120ZM1150.72 877.04V726H1158.4V877.04H1150.72ZM1166.08 877.04V726H1189.12V877.04H1166.08ZM1212.16 877.04V726H1219.84V877.04H1212.16ZM1227.52 877.04V726H1235.2V877.04H1227.52Z" fill="#BB5353"/>
<path d="M997 877.04V726H1004.68V877.04H997ZM1012.36 877.04V726H1020.04V877.04H1012.36ZM1027.72 877.04V726H1050.76V877.04H1027.72ZM1058.44 877.04V726H1066.12V877.04H1058.44ZM1089.16 877.04V726H1112.2V877.04H1089.16Z" fill="#BB5353"/>
<path d="M874 877.04V726H881.68V877.04H874ZM889.36 877.04V726H912.4V877.04H889.36ZM920.08 877.04V726H927.76V877.04H920.08ZM950.8 877.04V726H973.84V877.04H950.8ZM981.52 877.04V726H989.2V877.04H981.52Z" fill="#BB5353"/>
<path d="M751 877.04V726H758.68V877.04H751ZM766.36 877.04V726H789.4V877.04H766.36ZM797.08 877.04V726H820.12V877.04H797.08ZM843.16 877.04V726H850.84V877.04H843.16ZM858.52 877.04V726H866.2V877.04H858.52Z" fill="#BB5353"/>
<path d="M628 877.04V726H651.04V877.04H628ZM658.72 877.04V726H666.4V877.04H658.72ZM674.08 877.04V726H697.12V877.04H674.08ZM720.16 877.04V726H727.84V877.04H720.16ZM735.52 877.04V726H743.2V877.04H735.52Z" fill="#BB5353"/>
<path d="M505 877.04V726H528.04V877.04H505ZM535.72 877.04V726H543.4V877.04H535.72ZM551.08 877.04V726H558.76V877.04H551.08ZM566.44 877.04V726H589.48V877.04H566.44ZM612.52 877.04V726H620.2V877.04H612.52Z" fill="#BB5353"/>
<path d="M1243 726V877.04H1250.68V726H1243ZM1258.36 726V877.04H1266.04V726H1258.36ZM1273.72 726V877.04H1296.76V726H1273.72ZM1319.8 726V877.04H1327.48V726H1319.8ZM1335.16 726V877.04H1358.2V726H1335.16ZM1251.68 878.04H1242V725H1251.68V878.04ZM1267.04 878.04H1257.36V725H1267.04V878.04ZM1297.76 878.04H1272.72V725H1297.76V878.04ZM1328.48 878.04H1318.8V725H1328.48V878.04ZM1359.2 878.04H1334.16V725H1359.2V878.04Z" fill="#BB5353"/>
<path d="M1120 726V877.04H1143.04V726H1120ZM1150.72 726V877.04H1158.4V726H1150.72ZM1166.08 726V877.04H1189.12V726H1166.08ZM1212.16 726V877.04H1219.84V726H1212.16ZM1227.52 726V877.04H1235.2V726H1227.52ZM1144.04 878.04H1119V725H1144.04V878.04ZM1159.4 878.04H1149.72V725H1159.4V878.04ZM1190.12 878.04H1165.08V725H1190.12V878.04ZM1220.84 878.04H1211.16V725H1220.84V878.04ZM1236.2 878.04H1226.52V725H1236.2V878.04Z" fill="#BB5353"/>
<path d="M997 726V877.04H1004.68V726H997ZM1012.36 726V877.04H1020.04V726H1012.36ZM1027.72 726V877.04H1050.76V726H1027.72ZM1058.44 726V877.04H1066.12V726H1058.44ZM1089.16 726V877.04H1112.2V726H1089.16ZM1005.68 878.04H996V725H1005.68V878.04ZM1021.04 878.04H1011.36V725H1021.04V878.04ZM1051.76 878.04H1026.72V725H1051.76V878.04ZM1067.12 878.04H1057.44V725H1067.12V878.04ZM1113.2 878.04H1088.16V725H1113.2V878.04Z" fill="#BB5353"/>
<path d="M874 726V877.04H881.68V726H874ZM889.36 726V877.04H912.4V726H889.36ZM920.08 726V877.04H927.76V726H920.08ZM950.8 726V877.04H973.84V726H950.8ZM981.52 726V877.04H989.2V726H981.52ZM882.68 878.04H873V725H882.68V878.04ZM913.4 878.04H888.36V725H913.4V878.04ZM928.76 878.04H919.08V725H928.76V878.04ZM974.84 878.04H949.8V725H974.84V878.04ZM990.2 878.04H980.52V725H990.2V878.04Z" fill="#BB5353"/>
<path d="M751 726V877.04H758.68V726H751ZM766.36 726V877.04H789.4V726H766.36ZM797.08 726V877.04H820.12V726H797.08ZM843.16 726V877.04H850.84V726H843.16ZM858.52 726V877.04H866.2V726H858.52ZM759.68 878.04H750V725H759.68V878.04ZM790.4 878.04H765.36V725H790.4V878.04ZM821.12 878.04H796.08V725H821.12V878.04ZM851.84 878.04H842.16V725H851.84V878.04ZM867.2 878.04H857.52V725H867.2V878.04Z" fill="#BB5353"/>
<path d="M628 726V877.04H651.04V726H628ZM658.72 726V877.04H666.4V726H658.72ZM674.08 726V877.04H697.12V726H674.08ZM720.16 726V877.04H727.84V726H720.16ZM735.52 726V877.04H743.2V726H735.52ZM652.04 878.04H627V725H652.04V878.04ZM667.4 878.04H657.72V725H667.4V878.04ZM698.12 878.04H673.08V725H698.12V878.04ZM728.84 878.04H719.16V725H728.84V878.04ZM744.2 878.04H734.52V725H744.2V878.04Z" fill="#BB5353"/>
<path d="M505 726V877.04H528.04V726H505ZM535.72 726V877.04H543.4V726H535.72ZM551.08 726V877.04H558.76V726H551.08ZM566.44 726V877.04H589.48V726H566.44ZM612.52 726V877.04H620.2V726H612.52ZM529.04 878.04H504V725H529.04V878.04ZM544.4 878.04H534.72V725H544.4V878.04ZM559.76 878.04H550.08V725H559.76V878.04ZM590.48 878.04H565.44V725H590.48V878.04ZM621.2 878.04H611.52V725H621.2V878.04Z" fill="#BB5353"/>
</svg>
